if (_typeface_js && _typeface_js.loadFace) _typeface_js.loadFace({"glyphs":{"0":{"ha":763,"x_min":25,"x_max":718,"o":"m 718 360 q 578 88 718 189 q 275 -4 451 -4 q 25 238 25 -4 q 58 383 25 313 q 124 524 90 454 q 176 649 142 565 q 281 753 206 714 q 425 786 347 786 q 640 632 550 786 q 718 360 718 497 m 621 376 q 597 486 621 435 q 514 650 540 614 q 360 728 454 728 q 268 682 268 728 q 288 641 268 672 q 307 590 307 610 q 243 485 307 565 q 186 354 179 406 q 225 167 206 206 q 379 81 265 81 q 475 99 426 81 q 583 217 540 124 q 621 376 621 297 z "},"1":{"ha":763,"x_min":76,"x_max":618,"o":"m 615 918 q 553 560 568 726 q 536 321 536 376 q 563 146 536 197 q 613 15 613 49 q 580 -25 613 -7 q 524 -43 547 -43 q 443 35 464 -43 q 431 158 433 69 q 425 313 425 313 q 449 550 425 313 q 442 586 450 564 q 421 608 433 608 q 361 556 404 608 q 307 485 335 521 q 224 406 279 458 q 163 335 193 371 q 89 283 114 283 q 83 287 89 283 q 76 300 76 290 q 171 418 76 336 q 274 517 228 468 q 349 596 299 543 q 429 683 421 674 q 488 783 469 733 q 586 951 550 951 q 608 940 597 951 q 615 918 618 928 z "},"2":{"ha":763,"x_min":18,"x_max":733,"o":"m 733 90 q 614 -6 733 35 q 467 -42 590 -14 q 342 -57 399 -57 q 235 -42 285 -57 q 107 29 207 -33 q 18 149 18 85 q 46 204 18 185 q 111 224 74 224 q 147 221 124 224 q 183 218 171 218 q 306 351 258 218 q 381 606 347 471 q 403 729 403 696 q 388 824 403 781 q 326 883 368 883 q 255 837 303 883 q 196 790 207 790 q 194 796 194 793 q 279 911 194 835 q 385 996 332 953 q 425 1006 397 1006 q 490 958 468 1006 q 508 875 508 922 q 497 814 508 865 q 440 557 481 726 q 368 369 415 493 q 299 271 356 338 q 250 181 250 213 q 282 124 250 147 q 401 85 306 106 q 529 67 490 67 q 617 88 560 67 q 704 108 674 108 q 731 103 721 108 q 733 90 733 97 z "},"3":{"ha":763,"x_min":28,"x_max":721,"o":"m 721 307 q 676 185 721 251 q 524 49 618 99 q 326 0 431 0 q 125 47 206 0 q 28 215 28 104 q 47 247 28 247 q 97 210 65 247 q 142 157 119 183 q 381 104 188 104 q 604 208 604 104 q 550 314 604 265 q 449 389 499 351 q 394 485 394 435 q 468 615 394 531 q 542 750 542 700 q 492 837 542 797 q 394 876 443 876 q 318 847 365 876 q 247 799 282 824 q 232 797 239 797 q 193 833 193 797 q 313 946 193 897 q 475 988 410 988 q 643 842 643 988 q 580 698 643 772 q 517 582 517 624 q 569 479 517 522 q 668 411 618 444 q 721 307 721 368 z "},"4":{"ha":760,"x_min":67,"x_max":681,"o":"m 681 532 q 641 496 681 508 q 563 472 601 483 q 514 415 519 453 q 513 363 513 400 q 530 234 513 318 q 547 107 547 150 q 531 28 547 71 q 479 -26 510 -26 q 426 36 444 -26 q 408 126 424 43 q 388 242 400 165 q 381 419 388 242 q 363 465 379 446 q 321 485 347 485 q 154 450 317 485 q 109 463 135 446 q 75 498 83 479 q 67 543 67 517 q 76 593 67 567 q 151 800 114 696 q 269 985 203 919 q 303 1004 289 1004 q 307 992 307 1001 q 286 926 307 975 q 254 858 269 892 q 185 639 233 806 q 181 617 181 625 q 285 553 181 553 q 397 599 365 553 q 426 699 415 624 q 461 799 439 769 q 533 853 504 853 q 540 851 533 853 q 547 825 547 843 q 531 747 547 800 q 515 667 515 693 q 547 604 515 615 q 622 581 585 592 q 681 532 681 557 z "},"5":{"ha":763,"x_min":25,"x_max":733,"o":"m 733 957 l 733 950 q 654 911 733 922 q 597 903 651 910 q 349 864 476 888 q 257 810 290 853 q 224 708 224 768 q 276 613 224 633 l 486 531 q 631 424 558 501 q 708 268 708 339 q 640 118 708 193 q 501 22 579 53 q 342 -1 442 -1 q 189 14 239 -1 q 60 92 131 32 q 37 125 49 101 q 25 164 25 149 q 86 304 25 244 l 89 300 q 78 206 78 235 q 115 133 78 151 q 188 107 140 124 q 276 75 258 79 q 367 64 317 64 q 592 179 592 64 q 503 347 592 261 q 335 451 424 422 q 165 513 236 485 q 121 551 140 522 q 101 607 101 581 q 192 843 101 697 q 332 972 271 971 q 428 972 332 972 q 528 983 463 972 q 626 994 593 994 q 733 957 713 994 z "},"6":{"ha":763,"x_min":56,"x_max":693,"o":"m 693 192 q 610 79 693 118 q 482 21 496 26 q 353 3 429 3 q 142 49 213 3 q 56 238 56 104 q 56 260 56 257 q 86 436 64 319 q 174 749 115 540 q 236 851 182 778 q 317 942 290 924 q 372 960 343 960 q 435 933 404 960 q 467 875 467 906 q 465 865 467 875 q 438 850 456 849 q 357 858 357 858 q 319 846 339 858 q 294 815 299 833 q 256 674 282 768 q 206 501 210 515 q 185 326 185 411 q 199 240 185 276 q 260 189 219 189 q 322 219 288 189 q 389 279 374 268 q 503 310 438 310 q 625 286 572 310 q 693 192 693 254 m 533 147 q 482 204 533 183 q 399 221 442 221 q 321 207 361 221 q 268 157 268 188 q 319 99 268 121 q 403 81 360 81 q 482 94 444 81 q 533 147 533 113 z "},"7":{"ha":763,"x_min":18,"x_max":742,"o":"m 738 350 q 561 297 742 319 q 449 228 468 286 l 382 29 q 313 3 351 3 q 268 47 268 3 q 299 130 268 71 q 329 218 329 189 q 315 255 329 239 q 279 267 300 271 q 147 244 151 244 q 99 278 99 244 q 179 338 99 326 q 294 342 201 342 q 373 383 363 342 q 404 508 383 425 q 438 696 438 647 q 396 826 438 792 q 261 856 360 856 q 122 806 186 856 q 36 756 58 756 q 18 776 18 756 q 131 868 18 832 q 258 911 194 889 q 390 933 335 933 q 581 769 581 933 q 550 565 581 686 q 528 497 549 557 q 513 428 513 456 q 550 376 513 379 q 647 372 599 375 q 738 350 726 367 z "},"8":{"ha":757,"x_min":79,"x_max":694,"o":"m 694 704 q 640 544 694 608 q 538 461 618 518 q 482 386 482 422 q 528 303 482 375 q 574 196 574 232 q 467 47 574 129 q 344 6 411 6 q 178 79 272 6 q 79 225 79 156 q 158 315 79 269 q 238 396 238 361 q 166 481 238 422 q 94 564 94 539 q 179 614 94 614 q 310 540 242 614 q 428 467 378 467 q 558 536 503 467 q 611 678 611 600 q 557 821 611 760 q 421 882 503 882 q 385 872 403 882 q 361 846 363 861 l 344 713 q 321 676 340 676 q 269 726 292 676 q 249 801 249 769 q 336 904 249 860 q 476 943 413 943 q 631 869 567 943 q 694 704 694 796 m 328 157 q 300 261 328 214 q 214 317 268 317 q 156 294 185 317 q 128 243 128 272 q 192 149 128 203 q 297 96 257 96 q 306 97 297 96 q 328 157 328 108 z "},"9":{"ha":763,"x_min":86,"x_max":607,"o":"m 607 844 q 583 718 607 796 q 547 593 550 610 q 531 463 542 550 q 510 356 521 408 q 499 246 499 290 q 523 147 499 208 q 547 57 547 86 q 479 -1 547 -1 q 390 34 429 -1 q 351 119 351 69 l 351 272 q 371 408 351 319 q 390 539 390 497 q 331 606 390 606 q 247 581 301 606 q 165 557 193 557 q 86 651 86 557 q 228 872 86 761 q 474 978 363 978 q 569 941 532 978 q 607 844 607 904 m 496 808 q 469 875 496 849 q 403 901 442 901 q 294 849 344 901 q 244 738 244 796 q 324 663 244 663 q 440 706 385 663 q 496 808 496 750 z "}," ":{"ha":347,"x_min":0,"x_max":0,"o":""},"!":{"ha":482,"x_min":197,"x_max":461,"o":"m 278 358 q 259 372 267 358 q 253 396 251 385 q 272 563 260 451 q 279 708 274 611 q 303 897 279 708 q 328 1033 315 996 q 408 1146 350 1096 q 453 1168 435 1168 q 461 1142 461 1163 q 446 1067 461 1115 q 425 992 428 1010 q 414 832 422 938 q 369 556 410 790 q 339 436 356 478 q 278 358 307 358 m 322 96 q 297 28 322 64 q 243 -8 272 -8 q 212 4 226 -8 q 197 33 197 17 q 224 92 197 63 q 281 124 251 121 q 322 96 322 110 z "},"\"":{"ha":379,"x_min":-3,"x_max":368,"o":"m 368 1178 q 303 971 368 1076 q 249 921 272 921 q 213 1031 213 921 q 242 1171 213 1092 q 326 1269 276 1269 q 368 1178 368 1269 m 151 1100 q 131 965 151 1047 q 71 861 104 861 q 14 924 36 861 q -3 1017 -3 972 q 26 1133 -3 1069 q 106 1210 60 1210 q 151 1100 151 1210 z "},"#":{"ha":813,"x_min":68,"x_max":801,"o":"m 801 647 q 745 619 801 629 q 688 608 689 608 l 690 608 l 692 608 q 635 604 681 606 l 589 482 q 667 478 642 482 q 700 463 697 471 q 704 447 703 456 l 706 446 q 565 417 706 422 q 499 156 510 267 q 439 -11 482 -17 q 422 -8 428 -8 q 393 -11 378 -8 q 378 10 382 -10 l 353 21 l 353 28 q 406 228 351 76 q 474 411 440 319 l 289 403 q 229 156 239 264 q 169 -10 213 -15 q 153 -8 157 -8 q 124 -10 108 -8 q 108 11 111 -8 l 83 22 l 83 29 q 133 221 81 78 q 199 399 167 310 q 113 396 140 396 q 68 401 69 396 q 154 450 68 417 q 219 460 157 451 q 265 610 242 518 q 153 653 153 624 q 290 701 153 686 q 304 747 296 717 l 372 1072 q 419 1119 388 1093 q 478 1149 457 1149 q 501 1114 501 1149 q 403 710 501 1097 q 439 711 424 711 q 563 706 497 711 q 574 747 567 719 l 643 1071 q 689 1118 657 1092 q 747 1147 726 1147 q 771 1113 771 1147 q 721 901 771 1101 q 668 696 671 701 q 801 647 801 679 m 533 603 q 364 604 439 603 l 315 471 q 497 481 331 472 q 533 603 511 518 z "},"$":{"ha":950,"x_min":83,"x_max":863,"o":"m 863 335 q 806 204 863 278 q 699 106 754 136 l 604 54 q 546 -62 560 29 q 528 -217 536 -140 q 465 -293 514 -293 q 419 -242 419 -293 q 426 -160 419 -214 q 432 -81 432 -107 q 375 0 432 -18 q 244 25 310 13 q 101 117 154 49 q 83 154 83 140 l 83 158 q 117 174 92 174 q 226 125 154 174 q 344 76 297 76 q 417 99 386 76 q 451 163 449 122 q 467 404 467 396 q 399 515 467 486 q 271 563 335 539 q 201 715 201 604 q 267 876 201 788 q 396 996 326 958 l 481 1042 q 536 1183 519 1064 q 586 1371 556 1325 q 631 1411 613 1411 q 656 1357 656 1411 q 643 1248 656 1321 q 631 1140 631 1175 q 683 1033 631 1085 q 736 978 736 981 q 697 943 736 964 q 647 919 672 932 q 623 890 636 914 q 610 853 610 865 q 604 663 604 668 q 639 564 604 590 q 749 518 644 560 q 863 335 863 472 m 514 808 q 460 957 514 957 q 353 899 407 957 q 299 789 299 842 q 345 685 299 739 q 440 632 392 632 q 500 703 481 632 q 514 808 514 753 m 750 254 q 710 356 750 301 q 625 411 669 411 q 568 324 589 411 q 554 208 554 263 q 608 117 554 117 q 703 161 657 117 q 750 254 750 206 z "},"%":{"ha":968,"x_min":33,"x_max":910,"o":"m 401 850 q 320 679 401 776 q 167 582 239 582 q 68 635 106 582 q 33 744 33 682 q 110 910 33 842 q 283 978 186 978 q 370 942 339 978 q 401 850 401 907 m 910 274 q 904 226 910 251 q 831 99 892 171 q 713 21 764 21 q 664 125 664 21 q 701 331 664 279 q 811 393 749 393 q 885 358 860 393 q 910 274 910 324 m 756 881 q 761 869 761 878 q 722 788 761 851 q 669 703 696 746 q 613 575 651 660 q 547 443 590 532 q 490 286 529 401 q 440 110 440 142 q 455 67 440 94 q 469 26 469 40 q 428 -32 469 -3 q 356 -61 386 -61 q 311 -15 311 -61 q 353 115 311 -1 q 508 497 429 328 q 574 629 531 542 q 631 756 603 693 q 715 861 664 821 q 753 881 740 881 l 756 881 m 321 768 q 294 838 321 807 q 228 869 267 869 q 184 851 201 869 q 167 806 167 833 q 193 735 167 767 q 258 704 219 704 q 303 723 285 704 q 321 768 321 742 z "},"&":{"ha":804,"x_min":0,"x_max":743,"o":"m 743 361 q 653 288 743 325 q 563 228 563 251 q 646 161 563 193 q 729 96 729 129 q 698 33 729 65 q 636 0 667 0 q 501 72 606 0 q 328 144 397 144 q 199 88 279 144 q 64 31 119 31 q 0 93 0 31 q 63 215 0 126 q 126 357 126 304 q 103 446 126 382 q 81 543 81 510 q 121 668 81 608 q 194 775 144 706 q 294 872 229 818 q 426 942 381 942 q 511 849 511 942 q 454 700 511 786 q 347 560 400 629 q 289 444 289 483 q 338 352 289 390 q 440 314 386 314 q 581 353 486 314 q 696 392 675 392 q 743 361 743 392 m 390 740 q 324 814 390 814 q 224 760 265 814 q 183 646 183 707 q 196 560 183 599 q 249 504 214 504 q 347 599 300 504 q 390 740 390 682 m 192 283 q 138 261 161 283 q 114 208 114 239 q 132 171 114 185 q 174 157 150 157 q 230 178 206 157 q 254 231 254 200 q 235 269 254 254 q 192 283 215 283 z "},"'":{"ha":379,"x_min":88,"x_max":286,"o":"m 286 1110 q 269 1039 286 1082 q 244 968 247 979 q 219 892 236 935 q 181 831 196 831 q 108 917 136 831 q 88 1040 88 983 q 111 1151 88 1101 q 163 1199 119 1169 q 226 1229 207 1229 q 274 1182 257 1229 q 286 1110 286 1149 z "},"(":{"ha":608,"x_min":31,"x_max":565,"o":"m 565 1021 q 547 947 565 990 q 499 899 525 899 q 435 956 476 899 q 347 1014 393 1014 q 164 743 226 1014 q 122 394 122 564 q 135 171 122 246 q 239 -4 161 28 q 344 -31 303 -31 q 413 -22 368 -31 q 481 -14 458 -14 q 519 -21 507 -14 q 522 -29 522 -25 q 456 -85 522 -57 q 367 -119 411 -101 l 371 -117 q 328 -124 357 -118 q 283 -131 300 -131 q 68 -15 129 -131 q 47 71 63 -4 q 32 161 32 146 q 31 236 32 186 q 31 311 31 286 q 54 626 31 544 q 126 856 118 838 q 257 1031 151 911 q 342 1099 289 1068 q 443 1135 401 1135 q 528 1102 492 1135 q 565 1021 565 1069 z "},")":{"ha":711,"x_min":49,"x_max":611,"o":"m 611 514 q 576 214 611 321 q 467 13 540 97 q 274 -90 378 -90 q 171 -76 231 -90 q 92 -28 92 -57 q 119 14 92 -15 q 161 43 147 43 q 192 25 171 43 q 240 4 214 7 q 285 3 258 3 q 338 12 318 3 q 381 32 358 21 q 465 89 426 49 q 508 174 504 129 q 529 460 529 367 q 510 624 529 478 q 476 764 501 686 q 415 890 446 856 q 226 1006 325 993 q 151 1014 181 1011 l 176 1008 q 160 1008 175 1008 q 104 988 142 1007 q 57 969 67 969 q 50 978 49 969 q 99 1071 92 1060 q 176 1132 139 1132 q 243 1122 186 1132 q 514 960 426 1092 q 603 650 588 849 q 611 514 611 539 z "},"*":{"ha":694,"x_min":46,"x_max":671,"o":"m 546 1106 q 524 1038 546 1082 q 492 967 496 982 q 585 965 538 967 q 671 926 671 958 q 643 888 671 899 q 564 874 628 882 q 471 853 500 865 q 532 688 532 726 q 500 643 532 643 q 417 707 482 643 q 385 747 401 726 q 349 775 363 775 q 303 722 331 775 q 275 661 289 692 q 233 644 253 644 q 192 654 214 644 q 165 682 165 667 q 194 800 165 758 q 108 819 151 810 q 46 874 46 840 q 113 926 46 919 q 222 944 208 938 q 168 1094 168 1083 q 194 1164 168 1158 q 326 1029 201 1163 q 346 1025 338 1025 q 408 1099 361 1025 q 497 1174 456 1174 q 526 1167 511 1174 q 546 1106 546 1156 z "},"+":{"ha":694,"x_min":49,"x_max":650,"o":"m 650 407 q 641 383 650 396 q 622 368 632 369 l 511 349 q 478 342 508 347 q 413 296 431 332 q 396 226 404 278 q 371 150 388 174 q 335 122 353 122 q 282 213 308 122 q 218 290 258 299 l 103 264 q 66 270 83 258 q 49 301 49 282 q 96 368 49 343 q 190 401 143 385 q 253 458 243 424 l 299 631 q 325 662 301 642 q 361 682 349 682 q 369 681 361 682 q 376 656 378 669 q 364 510 364 510 q 378 464 364 485 q 418 442 394 439 l 594 460 q 650 407 650 442 z "},",":{"ha":386,"x_min":104,"x_max":328,"o":"m 328 164 q 297 -6 328 86 q 244 -153 253 -135 q 156 -279 207 -237 q 119 -297 133 -297 l 114 -296 q 104 -269 104 -289 q 128 -182 104 -244 q 160 -92 156 -110 q 171 51 163 -43 q 239 215 179 160 q 289 239 264 239 q 328 164 328 239 z "},"-":{"ha":596,"x_min":81,"x_max":556,"o":"m 556 475 q 513 411 556 440 q 438 383 471 382 l 424 383 l 101 404 q 82 415 85 406 q 86 446 81 422 q 192 535 108 535 q 333 535 333 535 q 461 528 397 532 q 556 475 556 518 z "},".":{"ha":439,"x_min":183,"x_max":363,"o":"m 363 104 q 334 28 363 60 q 261 -3 306 -3 q 207 17 231 -3 q 183 65 183 36 q 210 144 183 111 q 283 178 238 178 q 339 158 315 178 q 363 104 363 138 z "},"/":{"ha":581,"x_min":-14,"x_max":635,"o":"m 22 -11 q 8 10 7 -11 l -14 21 q 69 200 -10 61 q 161 358 115 279 q 360 742 286 581 q 496 1063 360 742 q 551 1108 503 1078 q 618 1139 600 1139 q 635 1118 635 1139 q 628 1082 635 1099 q 563 951 606 1039 q 451 706 528 868 q 281 413 394 607 q 181 222 244 350 q 138 89 160 156 q 68 -11 100 -11 l 22 -11 z "},":":{"ha":364,"x_min":99,"x_max":288,"o":"m 288 601 q 253 526 288 561 q 179 492 218 492 q 113 547 113 492 q 154 625 113 596 q 246 654 196 654 q 288 601 288 654 m 282 74 q 256 18 282 42 q 200 -6 231 -6 q 126 28 153 -6 q 99 108 99 61 q 126 165 99 142 q 186 188 153 188 q 256 153 231 188 q 282 74 282 119 z "},";":{"ha":265,"x_min":0,"x_max":267,"o":"m 239 369 q 156 297 239 297 q 74 326 110 297 q 39 400 39 356 q 70 468 39 435 q 135 501 101 501 q 208 458 178 501 q 239 369 239 414 m 267 144 q 233 3 267 114 q 194 -121 207 -86 q 143 -235 176 -158 q 89 -362 117 -299 q 6 -482 33 -482 q 0 -469 0 -479 q 60 -292 0 -440 q 135 -90 126 -122 q 161 60 147 -15 q 247 178 190 178 q 261 165 256 178 q 267 144 267 153 z "},"<":{"ha":726,"x_min":113,"x_max":640,"o":"m 583 844 q 617 837 594 844 q 640 822 640 829 q 549 765 640 804 q 379 692 399 701 q 288 608 288 644 q 367 501 288 575 q 428 438 406 467 q 446 410 433 428 q 510 351 478 381 q 567 281 567 297 q 564 274 567 281 q 461 231 531 231 q 381 256 407 231 q 324 321 361 278 q 171 494 272 378 q 113 583 113 565 q 250 679 113 619 q 349 732 283 697 l 501 814 q 583 844 560 844 z "},"=":{"ha":429,"x_min":18,"x_max":428,"o":"m 428 549 q 318 497 428 521 q 178 478 228 478 q 38 535 38 478 q 97 597 38 576 q 196 613 140 613 q 325 594 242 613 q 428 549 428 574 m 401 285 q 385 265 401 275 q 356 254 368 256 l 90 228 q 46 225 63 225 q 19 231 24 225 l 19 233 q 71 292 18 251 q 242 353 150 353 q 335 336 281 353 q 401 285 401 314 z "},">":{"ha":726,"x_min":144,"x_max":629,"o":"m 257 192 q 164 176 164 176 q 144 188 144 176 q 150 204 144 193 q 157 219 156 215 q 240 276 163 242 q 381 339 379 338 q 454 414 454 378 q 444 447 454 429 q 375 519 435 465 q 286 619 335 556 q 207 726 246 674 q 172 756 203 731 q 144 783 144 776 q 189 819 144 803 q 249 832 225 832 q 329 808 301 832 q 375 754 349 790 q 417 696 407 708 l 488 615 q 568 529 528 572 q 629 439 629 463 q 531 360 629 408 q 393 289 397 292 l 257 192 z "},"?":{"ha":621,"x_min":24,"x_max":582,"o":"m 582 807 q 556 704 582 769 q 506 607 531 639 q 410 497 476 567 q 314 389 343 426 q 303 347 303 374 q 414 306 303 322 q 525 264 525 290 q 463 204 525 226 q 367 186 413 186 q 263 204 308 186 q 200 278 200 229 q 205 306 200 292 q 438 593 210 321 q 475 701 475 638 q 392 840 475 814 q 315 867 353 853 q 238 882 267 882 q 156 828 196 882 q 82 775 115 775 q 40 794 57 775 q 24 838 24 813 q 113 938 24 893 q 197 982 156 960 q 286 1006 246 1006 q 401 979 328 1006 q 525 924 496 944 q 582 807 582 882 m 385 40 q 358 -30 385 -1 q 289 -58 331 -58 q 239 -41 261 -58 q 217 4 217 -24 q 242 78 217 47 q 310 108 268 108 q 363 90 340 108 q 385 40 385 71 z "},"@":{"ha":1022,"x_min":-3,"x_max":1013,"o":"m 1013 554 q 950 426 1013 485 q 832 336 938 414 q 678 267 738 267 q 533 286 678 267 l 419 257 q 338 349 338 257 q 375 451 338 415 q 513 581 488 561 q 681 660 610 660 q 763 631 728 660 q 799 556 799 601 q 774 478 799 518 q 735 408 740 422 q 761 397 738 397 q 854 428 813 397 q 901 511 901 463 q 824 692 901 569 q 710 835 761 790 q 546 900 636 900 q 271 810 411 900 q 89 593 125 715 q 68 458 68 522 q 141 248 68 356 q 311 110 214 140 q 435 71 353 94 q 635 40 563 40 q 871 76 682 40 q 899 79 886 79 q 919 76 910 79 l 924 71 q 725 14 893 35 q 501 -1 600 -1 q 288 46 396 -1 l 189 89 q 88 185 153 106 q -3 449 -3 296 q 132 749 -3 625 q 353 908 244 853 q 624 990 513 990 q 724 968 688 990 q 797 893 756 949 q 883 814 813 872 q 956 729 942 765 q 992 644 974 686 q 1013 554 1013 592 m 617 518 q 588 565 617 565 q 510 513 547 565 q 474 419 474 461 q 504 372 474 372 q 582 426 544 372 q 617 518 617 476 z "},"A":{"ha":913,"x_min":0,"x_max":910,"o":"m 910 394 l 910 392 q 847 349 910 386 q 783 272 783 313 q 810 188 783 258 q 847 93 829 140 q 824 27 846 54 q 763 0 801 0 q 719 12 740 0 q 661 206 699 24 q 574 276 646 276 q 493 261 542 276 q 414 239 425 242 q 283 218 349 229 q 183 144 211 200 q 139 60 150 76 q 68 7 104 7 q 50 32 50 7 q 101 123 50 61 q 151 207 151 185 q 113 253 151 231 q 39 292 40 292 q 0 363 0 321 q 29 419 0 392 q 88 447 58 447 q 159 396 118 447 q 226 344 200 344 q 319 436 267 344 q 433 636 358 503 q 478 735 447 669 q 535 824 497 764 q 597 931 565 876 q 692 996 643 996 q 731 979 714 996 q 747 940 747 963 q 742 858 747 913 q 736 778 736 804 q 744 713 736 756 q 751 649 751 669 q 747 494 751 649 q 779 425 746 444 q 849 409 800 414 q 910 394 897 404 m 613 399 q 601 544 613 433 q 578 683 588 669 q 571 686 575 686 q 519 632 554 686 q 476 558 497 594 q 425 478 460 531 q 382 421 403 449 q 356 356 356 385 q 446 311 356 311 q 613 399 613 311 z "},"B":{"ha":1018,"x_min":0,"x_max":994,"o":"m 994 249 q 886 67 994 139 q 674 1 789 1 q 546 11 626 1 q 326 44 358 33 q 133 158 288 58 q 32 293 32 225 q 51 340 32 319 q 94 360 69 360 q 191 282 136 360 q 293 204 246 204 q 331 218 311 204 q 353 250 350 232 l 388 511 q 408 594 392 539 q 440 675 426 657 q 535 729 482 729 q 581 688 581 729 q 554 603 581 665 q 528 510 528 540 q 537 483 528 493 q 561 472 546 472 q 663 538 596 472 q 742 621 701 579 q 792 672 790 671 q 815 739 815 703 q 646 864 815 864 q 451 842 536 864 q 264 775 401 829 q 153 721 224 760 q 89 669 121 694 q 17 635 42 635 q 6 638 13 635 q 0 649 0 640 q 118 744 0 690 q 256 799 188 772 q 364 843 292 815 q 560 893 364 843 q 718 914 642 914 q 936 786 936 914 q 881 658 936 719 q 779 571 856 629 q 724 507 724 528 q 751 479 724 486 l 882 444 q 967 365 935 431 q 994 249 994 310 m 836 208 q 767 356 836 304 q 606 400 706 400 q 506 351 540 400 q 476 240 476 308 q 576 86 476 101 q 728 65 714 65 q 811 111 783 65 q 836 208 836 150 z "},"C":{"ha":861,"x_min":0,"x_max":939,"o":"m 938 92 q 939 89 939 90 q 714 28 939 58 q 428 1 521 1 q 203 22 310 1 q 18 117 47 53 q 0 208 0 156 q 32 336 0 281 q 115 443 47 361 q 217 561 149 485 q 329 649 247 590 q 451 728 344 660 q 567 771 488 750 q 692 792 646 792 q 822 746 758 792 q 892 631 892 696 q 839 571 892 571 q 771 607 810 571 q 699 674 703 671 q 597 710 650 710 q 293 533 451 710 q 201 421 292 532 q 144 274 144 351 q 292 106 144 163 q 532 64 401 64 q 888 99 588 64 q 938 92 919 103 z "},"D":{"ha":1218,"x_min":0,"x_max":1207,"o":"m 1207 547 q 1171 410 1207 500 q 1101 282 1135 321 l 1043 213 q 964 125 1010 172 q 814 42 835 51 q 650 0 725 0 q 454 56 549 0 q 307 146 326 131 q 203 279 229 204 q 199 301 199 292 q 221 326 199 326 q 321 253 263 326 q 410 157 390 167 q 604 69 506 107 q 696 53 650 53 q 792 81 749 53 q 872 147 797 85 q 951 226 926 193 q 1016 328 960 238 q 1072 506 1072 418 q 1010 710 1072 639 q 906 818 932 799 q 769 892 886 833 q 650 924 710 922 q 449 928 483 928 q 322 906 403 928 q 201 869 263 888 q 128 786 157 857 q 61 722 100 722 q 19 739 38 722 q 0 779 0 756 q 47 842 0 817 q 125 872 86 856 q 242 917 164 888 q 586 982 446 982 q 860 947 764 982 q 1096 792 963 910 q 1174 680 1140 753 q 1207 547 1207 607 m 578 207 q 525 311 525 207 q 542 453 525 361 q 579 586 560 551 q 678 676 615 650 q 706 683 694 683 q 732 653 732 683 q 683 513 732 640 q 670 401 675 492 q 651 271 665 311 q 578 207 629 207 z "},"E":{"ha":694,"x_min":19,"x_max":807,"o":"m 807 844 q 786 776 807 806 q 725 743 763 743 q 672 797 689 743 q 646 897 660 847 q 571 951 624 951 q 479 919 525 951 q 394 824 440 892 q 346 707 346 750 q 406 614 346 658 q 468 542 467 569 q 425 517 460 517 q 351 524 400 517 q 278 531 301 531 q 211 486 231 531 l 168 392 q 154 326 154 358 q 198 193 154 265 q 297 101 242 121 l 419 60 q 506 47 453 47 q 624 62 546 47 q 742 76 703 76 q 763 72 756 76 q 736 53 765 63 q 617 14 696 38 q 467 -1 550 -1 q 256 19 319 -1 q 19 274 19 97 q 40 396 19 319 q 91 505 63 483 q 150 549 119 526 q 200 607 194 586 q 232 740 231 736 q 295 849 249 792 q 368 918 342 906 l 494 982 q 642 1014 558 1014 q 760 965 713 1014 q 807 844 807 915 z "},"F":{"ha":811,"x_min":-4,"x_max":1140,"o":"m 1139 857 l 1139 854 q 1053 819 1140 832 q 942 811 997 815 q 808 800 897 808 q 664 772 763 793 q 225 674 518 739 q 94 656 144 656 q 0 694 19 656 q 149 753 -4 753 q 217 750 171 753 q 286 747 263 747 q 382 758 328 747 q 478 782 431 771 q 768 840 624 814 q 1051 879 985 879 q 1139 857 1122 879 m 772 325 q 752 299 772 314 q 719 282 732 285 l 513 243 q 453 200 482 238 q 418 133 429 168 q 304 0 376 0 q 282 32 289 0 q 304 169 304 164 q 261 217 304 208 q 185 219 254 218 q 110 240 129 221 q 107 251 107 246 q 113 269 107 261 q 229 325 138 313 q 329 358 321 338 l 382 488 q 431 588 413 563 q 519 657 461 631 q 550 665 538 665 q 558 663 550 665 q 565 649 565 660 q 519 525 565 625 q 474 364 474 425 q 491 324 474 342 q 531 310 508 306 l 726 342 q 755 339 738 343 q 772 325 772 335 z "},"G":{"ha":610,"x_min":-224,"x_max":756,"o":"m 756 851 q 672 706 756 786 q 525 625 589 625 q 515 627 518 625 q 513 632 513 629 q 580 701 513 649 q 647 804 647 754 q 615 875 647 844 q 543 906 583 906 q 326 735 433 906 q 215 440 215 556 q 244 353 215 393 q 322 308 276 308 q 414 376 360 308 q 507 443 468 443 q 533 428 522 443 q 543 399 544 414 q 524 256 535 350 q 518 117 522 208 q 476 -204 506 -78 q 372 -510 444 -350 q 224 -650 342 -578 q 68 -699 144 -699 q -132 -612 -40 -699 q -224 -418 -224 -526 q -144 -242 -224 -328 q 21 -136 -71 -162 q 49 -132 39 -132 l 54 -132 q 38 -150 54 -139 q -90 -242 -68 -219 q -139 -381 -139 -293 q -97 -499 -139 -443 q 3 -594 -61 -547 q 124 -651 78 -651 q 238 -578 188 -651 q 299 -451 261 -542 q 361 -246 350 -328 q 374 -99 365 -197 q 400 218 390 86 q 358 272 404 272 q 290 261 336 272 q 219 250 243 250 q 133 294 164 250 q 107 392 107 333 q 169 601 107 488 q 272 775 201 663 q 615 960 415 960 q 711 935 671 960 q 756 851 756 904 z "},"H":{"ha":978,"x_min":-1,"x_max":976,"o":"m 838 560 q 890 499 838 522 q 946 475 918 488 q 926 465 940 471 q 830 399 857 436 q 803 289 803 363 q 808 194 803 257 q 814 100 814 131 q 796 32 814 60 q 736 0 775 0 q 671 44 693 0 q 654 128 654 79 q 664 219 654 158 q 674 308 674 279 q 578 410 674 410 q 494 354 524 410 q 469 251 469 310 q 484 166 469 222 q 499 81 499 110 q 421 25 499 25 q 322 132 322 25 q 338 238 322 161 q 354 349 354 314 q 310 428 354 414 q 140 460 225 444 q 0 532 22 485 q 32 569 -1 556 q 86 579 57 579 q 193 535 124 579 q 315 492 263 492 q 396 556 388 492 q 433 699 401 604 q 469 842 464 793 q 532 989 483 954 q 575 1003 553 1003 q 604 987 592 1003 q 617 953 617 971 q 554 675 617 897 q 529 603 542 639 q 513 531 513 556 q 611 458 513 458 q 688 482 665 458 q 718 556 703 499 q 761 710 732 607 q 814 896 807 879 q 939 1031 865 1031 q 976 985 976 1031 q 919 856 976 965 q 908 793 910 838 q 900 731 906 744 q 863 646 882 688 q 838 560 838 585 z "},"I":{"ha":489,"x_min":17,"x_max":429,"o":"m 429 467 q 424 325 429 413 q 399 224 422 303 q 368 126 376 144 q 324 46 339 65 q 246 4 290 4 q 185 26 200 4 q 106 136 158 64 q 53 189 79 163 q 17 249 17 226 q 18 257 17 249 q 50 269 28 269 q 148 197 88 269 q 240 124 208 124 q 321 315 321 124 q 319 358 321 333 q 319 390 319 385 q 319 511 319 511 q 297 635 311 553 q 271 796 290 689 q 243 881 268 808 q 225 968 225 936 q 289 1025 225 1025 q 372 958 356 1025 q 388 821 382 917 q 401 678 394 717 q 429 467 429 517 z "},"J":{"ha":529,"x_min":29,"x_max":475,"o":"m 475 360 q 471 288 475 332 q 467 217 467 232 q 458 -18 463 99 q 401 -281 446 -186 q 229 -414 344 -407 l 219 -414 q 69 -292 122 -419 q 29 -89 29 -196 q 42 51 29 -89 q 128 175 46 104 q 264 211 158 203 q 349 258 350 218 q 349 719 346 375 q 339 750 349 733 q 317 767 329 767 q 293 750 299 767 l 236 596 q 196 585 215 585 q 156 618 156 585 q 213 733 156 629 q 282 839 251 807 q 390 892 331 892 q 474 800 474 892 l 474 533 q 474 446 474 504 q 475 360 475 389 m 343 106 q 244 183 343 183 q 125 111 164 183 q 94 -36 94 53 q 99 -92 94 -64 q 121 -224 115 -203 q 197 -329 143 -300 q 231 -339 214 -339 q 276 -299 264 -339 q 307 -179 288 -258 q 343 106 343 29 z "},"K":{"ha":861,"x_min":0,"x_max":963,"o":"m 960 127 q 961 126 960 127 q 963 121 963 125 q 950 100 963 114 q 626 -1 857 -1 q 490 21 543 -1 q 394 63 428 47 q 306 115 333 93 l 213 193 q 171 213 189 213 q 117 133 154 213 q 46 54 79 54 q 0 196 0 54 q 39 360 0 286 q 92 496 85 446 q 110 626 96 540 q 153 761 126 671 q 174 888 160 804 q 219 968 179 922 q 292 1014 260 1014 q 318 981 318 1014 q 296 897 318 958 q 265 811 268 821 q 235 653 265 811 q 211 554 233 646 q 194 461 194 486 q 217 417 194 438 q 264 397 240 397 q 311 414 296 397 l 399 511 q 485 610 429 543 q 604 779 544 694 q 776 917 713 917 l 783 917 q 789 908 789 914 q 778 888 789 899 q 689 796 746 857 q 622 696 668 761 q 529 592 590 661 q 449 488 504 556 q 375 426 411 457 q 326 347 326 385 q 440 225 326 300 q 540 160 474 201 q 676 107 540 160 q 763 93 711 93 q 856 111 794 93 q 947 129 917 129 q 960 127 957 129 z "},"L":{"ha":686,"x_min":0,"x_max":817,"o":"m 814 126 l 817 119 q 735 82 788 103 q 650 47 669 57 q 497 0 550 0 q 400 51 435 0 q 346 149 372 100 q 242 200 308 200 q 119 146 185 200 q 28 92 53 92 q 0 132 0 92 q 58 257 0 156 q 107 372 79 293 q 156 488 124 419 q 293 860 203 590 q 375 990 328 963 q 417 1001 396 1001 q 453 964 453 1001 q 426 889 453 942 q 392 815 394 822 q 350 693 379 774 q 174 311 289 540 q 169 285 169 303 q 172 268 169 275 q 200 258 182 258 q 296 277 224 258 q 386 296 368 296 q 478 247 442 296 q 536 158 507 203 q 633 110 574 110 q 731 134 672 110 q 797 158 790 158 q 814 126 817 158 z "},"M":{"ha":1521,"x_min":1,"x_max":1656,"o":"m 1656 67 q 1629 47 1656 56 q 1525 13 1533 15 q 1422 0 1476 0 q 1261 21 1406 0 q 1178 78 1218 28 q 1122 163 1168 90 q 1094 250 1094 206 q 1114 454 1094 258 q 1101 499 1117 476 q 1093 500 1097 500 l 1092 500 q 1049 429 1076 486 q 1013 349 1014 350 q 825 165 910 165 q 783 236 783 165 q 815 396 783 292 q 863 550 861 547 q 919 818 919 790 q 906 854 919 854 q 768 657 871 854 q 675 469 738 594 l 578 275 q 528 226 567 251 q 463 200 489 200 q 424 244 424 200 q 488 554 424 300 q 514 643 501 599 q 531 732 531 699 q 513 761 531 761 q 424 699 492 761 q 328 615 344 625 q 242 567 299 600 q 150 507 196 536 q 49 476 99 476 q 17 485 33 476 q 1 506 1 493 q 163 574 1 551 q 260 618 206 579 q 345 683 303 650 q 514 836 388 717 q 599 940 557 889 q 708 1007 657 1007 q 731 979 731 1007 q 710 913 731 967 q 682 842 696 876 q 610 586 610 631 q 624 556 610 556 q 644 568 636 556 q 808 817 761 753 q 1033 1010 951 1010 q 1056 1006 1046 1010 q 1074 960 1081 983 q 1035 822 1060 914 q 1014 697 1029 781 q 988 615 1011 688 q 969 535 969 561 q 976 507 969 517 q 982 506 978 507 q 1032 565 1001 506 q 1068 643 1050 604 q 1133 739 1090 675 q 1206 851 1157 778 q 1281 938 1231 881 q 1333 1001 1307 969 q 1406 1038 1369 1038 q 1435 1010 1435 1038 q 1403 943 1435 990 q 1358 875 1361 882 q 1301 725 1358 875 q 1261 589 1274 653 q 1240 443 1257 563 q 1238 404 1238 425 q 1256 269 1238 339 q 1315 151 1278 182 l 1360 115 q 1401 93 1369 107 q 1443 79 1432 79 q 1551 79 1497 79 q 1656 67 1647 76 z "},"N":{"ha":997,"x_min":-3,"x_max":1267,"o":"m 1263 990 q 1267 982 1267 988 q 1182 878 1267 974 q 1056 674 1181 876 q 993 574 1035 640 q 871 333 907 426 q 821 172 854 279 q 776 57 794 86 q 676 -1 740 -1 q 613 38 638 -1 q 571 163 599 60 q 542 274 547 246 q 521 431 542 274 q 511 456 519 440 q 494 472 503 472 q 475 458 481 472 l 426 325 q 369 240 417 299 q 297 151 297 151 q 211 79 256 104 q 81 24 115 24 q 14 76 38 24 q -3 168 -3 117 q 26 279 -3 222 q 110 346 61 346 q 137 238 135 346 q 175 129 139 129 q 263 194 219 129 q 378 385 326 292 q 413 494 386 400 q 454 644 426 544 q 489 790 472 718 q 593 888 524 888 q 646 811 646 888 q 641 753 646 792 q 636 696 636 715 q 649 567 636 644 l 688 332 q 700 303 689 319 q 721 288 711 288 q 776 344 747 288 q 813 424 794 383 q 989 711 883 553 q 1061 813 1014 744 q 1122 908 1082 844 q 1184 962 1138 932 q 1256 992 1231 992 l 1263 990 z "},"O":{"ha":928,"x_min":-3,"x_max":911,"o":"m 911 464 q 890 342 911 399 q 643 99 840 206 q 301 -1 460 -1 q 68 81 142 -1 q -3 319 -3 158 q 32 564 -3 417 q 113 767 64 697 q 292 878 176 856 q 331 882 311 882 q 392 877 354 882 q 454 872 429 872 l 483 872 q 549 872 549 872 q 324 828 449 856 q 176 624 190 707 q 151 378 151 476 q 215 157 151 229 q 428 81 282 81 q 599 118 506 81 q 742 215 697 158 q 810 306 776 261 q 851 460 851 363 q 735 771 851 625 q 653 822 728 779 q 578 869 578 865 q 590 874 582 874 q 654 864 629 874 q 703 838 664 860 q 750 810 742 817 q 911 464 911 663 z "},"P":{"ha":828,"x_min":0,"x_max":994,"o":"m 994 692 q 964 583 994 622 q 871 513 940 554 q 760 449 871 513 q 675 428 739 438 q 571 407 600 417 q 500 350 517 389 l 403 118 q 358 44 386 79 q 290 0 322 0 q 265 43 265 0 q 294 157 265 93 q 350 263 322 210 q 371 394 365 292 q 414 513 375 456 q 467 606 460 576 q 501 735 494 717 q 599 817 536 817 q 642 765 636 817 q 565 538 565 563 q 589 478 565 500 q 650 456 613 456 q 801 526 738 456 q 865 683 865 596 q 825 790 865 744 q 749 863 793 826 q 658 914 693 906 q 488 953 658 914 q 429 960 457 960 q 274 922 399 960 q 122 858 140 881 q 79 801 100 831 q 24 763 46 763 q 0 793 0 763 q 149 910 0 849 q 281 964 193 931 q 451 994 353 983 q 583 996 464 996 q 736 963 588 996 q 853 903 788 951 q 956 817 936 842 q 994 692 994 769 z "},"Q":{"ha":989,"x_min":-1,"x_max":1015,"o":"m 1015 42 q 940 0 1015 0 q 766 61 878 0 q 603 122 654 122 q 457 101 557 122 q 306 79 357 79 q -1 283 -1 79 q 67 547 -1 358 q 139 738 85 597 q 191 818 154 776 q 264 875 228 860 l 379 924 q 475 975 428 949 q 581 997 521 997 q 683 985 631 997 q 778 940 736 972 q 856 867 797 925 q 931 765 903 819 q 979 646 944 739 q 994 533 994 606 q 954 371 994 433 q 878 292 936 343 q 838 222 838 257 q 926 128 838 179 q 1015 42 1015 76 m 817 486 q 796 617 817 539 q 742 736 771 701 l 667 825 q 529 915 590 915 q 457 892 500 915 q 389 851 422 871 q 325 825 357 839 q 269 790 276 806 q 182 533 231 710 q 140 333 140 379 q 439 124 140 124 q 532 138 490 124 q 589 197 589 157 q 525 292 589 233 q 461 394 461 351 q 484 438 461 422 q 536 453 507 453 q 624 418 585 453 q 679 353 636 407 q 728 318 707 318 q 797 383 772 318 q 817 486 817 435 z "},"R":{"ha":978,"x_min":1,"x_max":1106,"o":"m 1104 60 q 888 26 1064 26 q 740 47 828 26 q 603 78 671 63 q 469 131 517 100 q 403 176 436 154 q 331 206 358 206 q 286 151 306 206 q 249 53 254 63 q 171 -1 219 -1 q 124 19 144 -1 q 104 65 104 39 q 172 276 104 103 q 244 451 208 364 q 306 656 279 538 q 407 803 325 744 q 439 828 439 826 q 407 836 439 839 l 258 822 q 149 756 222 819 q 33 693 76 693 q 6 701 18 693 q 1 718 1 708 q 47 782 1 751 q 124 817 83 807 q 332 867 318 863 q 542 889 446 889 q 753 868 660 889 q 922 767 890 838 q 939 688 939 731 q 906 572 939 622 q 825 482 888 543 q 697 371 785 442 q 621 326 660 349 q 567 261 567 290 q 632 190 567 221 q 750 142 664 175 q 863 104 847 106 q 986 97 924 100 q 1104 71 1083 89 q 1106 65 1106 68 q 1104 60 1106 65 m 799 690 q 718 808 799 764 q 571 846 651 846 q 490 782 494 846 l 482 667 q 442 553 479 632 q 407 435 407 479 q 436 365 407 396 q 504 333 465 333 q 581 368 539 333 q 643 429 597 381 q 750 546 733 522 q 799 690 799 614 z "},"S":{"ha":904,"x_min":0,"x_max":879,"o":"m 879 183 q 700 32 879 79 q 438 0 583 0 q 279 14 338 0 q 138 49 140 47 q 18 128 58 75 q 0 171 0 151 q 22 185 0 185 q 150 125 51 185 q 276 71 210 89 q 417 42 278 71 q 486 35 453 35 q 617 63 553 35 q 696 156 696 97 q 590 299 696 228 q 381 411 532 339 q 221 503 249 474 q 179 601 179 547 q 215 707 179 651 q 421 847 289 818 q 679 861 485 861 q 826 760 826 861 q 811 706 826 736 q 772 671 794 671 q 718 710 743 671 q 665 782 676 771 q 560 821 624 821 q 411 772 471 821 q 351 636 351 724 q 469 476 351 539 l 749 329 q 879 183 879 260 z "},"T":{"ha":700,"x_min":14,"x_max":1217,"o":"m 1217 846 q 1121 813 1217 819 q 1000 808 1060 810 q 835 797 944 803 q 635 797 835 797 q 524 743 557 797 q 496 651 510 719 q 474 556 481 575 q 403 368 439 467 q 394 74 403 368 q 370 24 394 50 q 322 -1 346 -1 q 247 57 274 -1 q 226 158 226 103 q 247 299 226 218 q 301 510 264 369 q 347 628 303 515 q 381 742 381 711 q 374 772 381 761 q 311 799 358 794 q 74 815 206 803 q 14 871 14 832 q 44 915 14 900 q 101 928 69 928 q 224 893 144 928 q 347 858 304 858 q 408 866 367 858 q 469 874 449 874 q 553 872 499 874 q 635 869 608 869 q 746 869 675 869 q 857 871 825 871 q 930 869 882 871 q 1001 867 978 867 q 1167 869 1001 867 q 1198 863 1179 869 q 1217 846 1217 857 z "},"U":{"ha":964,"x_min":4,"x_max":1135,"o":"m 1135 56 q 1083 10 1135 26 q 1008 -1 1046 -1 q 839 40 943 -1 q 697 133 724 85 q 657 211 676 172 q 601 274 619 274 q 567 256 578 274 l 501 147 q 378 26 461 79 q 217 -31 292 -31 q 4 289 4 -31 q 36 613 4 446 q 90 817 54 707 q 214 1006 154 1006 q 229 979 229 1006 q 192 852 229 954 q 129 606 154 750 q 108 428 108 482 q 139 206 108 294 q 290 69 185 69 q 490 213 411 69 q 550 321 546 313 q 586 433 574 371 q 619 601 597 489 q 639 733 629 668 q 689 857 654 811 q 728 885 710 885 q 756 826 756 885 q 737 699 756 783 q 718 569 718 614 q 740 421 718 500 q 804 288 764 331 l 881 204 q 1028 132 903 179 q 1135 56 1135 90 z "},"V":{"ha":776,"x_min":1,"x_max":1018,"o":"m 1018 1022 q 871 807 1018 1011 q 651 493 793 703 q 476 146 588 388 q 429 54 444 76 q 349 -1 392 -1 q 297 19 321 -1 q 178 256 269 43 q 83 483 103 429 q 50 608 72 525 q 4 742 38 650 q 1 771 1 750 q 23 836 1 807 q 79 865 44 865 q 142 811 121 865 q 167 724 154 767 q 208 611 181 686 q 254 474 222 565 q 307 360 272 436 q 357 224 307 360 q 374 203 360 214 q 397 193 388 193 q 433 208 414 193 q 594 485 486 301 q 633 553 607 508 q 688 622 651 576 q 850 850 769 736 q 1015 1029 985 1029 q 1018 1022 1018 1026 z "},"W":{"ha":1046,"x_min":3,"x_max":1043,"o":"m 1043 686 q 1025 493 1043 658 q 990 322 1011 372 q 896 171 975 285 q 749 49 865 126 q 628 0 675 0 q 521 74 558 0 q 478 219 499 117 q 443 331 460 313 q 435 332 439 332 q 407 321 417 332 q 331 235 336 239 q 242 172 299 201 q 168 131 206 151 q 92 106 119 106 q 26 138 49 106 q 3 214 3 169 q 13 292 3 246 q 31 368 22 331 q 57 518 38 419 q 103 647 74 561 q 138 776 119 713 q 207 888 161 850 q 246 904 228 904 q 260 874 260 904 q 224 761 260 864 q 185 650 185 650 q 168 563 181 621 q 140 446 156 504 q 124 326 124 375 q 142 251 124 282 q 206 214 164 214 q 333 288 263 214 q 446 425 347 301 q 535 499 506 499 q 551 488 542 499 q 563 471 561 478 q 596 260 581 313 q 733 118 639 118 q 931 339 854 118 q 990 664 990 510 q 963 846 990 764 q 918 988 918 976 q 938 1009 918 997 q 968 1021 957 1021 q 1017 983 1004 1021 q 1031 833 1018 979 q 1043 686 1043 686 z "},"X":{"ha":726,"x_min":0,"x_max":768,"o":"m 768 749 q 699 696 768 703 q 583 651 613 686 q 538 601 553 617 q 485 556 510 572 q 410 451 410 504 q 446 343 410 400 l 532 207 q 621 135 546 185 q 689 75 689 89 q 643 19 689 43 q 569 0 604 0 q 465 40 519 0 q 381 119 442 58 q 306 251 358 142 q 249 297 283 297 q 186 265 210 297 l 65 103 q 36 97 49 97 q 0 131 0 97 q 56 221 0 172 q 158 308 107 265 q 214 419 214 364 q 174 536 214 454 q 132 653 158 565 l 88 800 q 81 847 81 825 q 109 917 81 885 q 174 950 138 950 q 221 924 207 950 q 267 789 235 899 q 321 619 300 669 q 390 536 356 536 q 447 579 414 536 q 494 643 471 611 q 578 714 494 643 q 675 794 622 753 q 711 803 693 803 q 751 787 733 803 q 768 749 768 771 z "},"Y":{"ha":793,"x_min":22,"x_max":814,"o":"m 507 -282 q 408 -231 476 -282 l 332 -172 q 206 -29 319 -162 q 168 97 168 15 q 176 124 168 124 q 189 114 185 124 q 263 -28 243 -6 q 396 -139 282 -51 q 506 -194 468 -194 q 538 -181 521 -194 q 557 -153 556 -168 l 575 57 q 594 250 582 121 q 594 343 594 281 q 611 526 596 389 q 605 558 613 542 q 582 575 597 575 q 483 510 567 575 q 379 465 453 486 q 267 446 311 446 q 171 529 171 446 q 192 665 171 550 q 214 782 210 764 q 236 851 215 790 q 250 921 250 894 q 215 961 250 961 q 203 960 210 961 q 122 904 163 932 q 32 864 57 863 l 28 864 q 22 874 22 867 q 35 892 22 878 q 121 951 69 931 q 222 993 172 972 q 281 1031 224 994 q 339 1056 319 1056 q 369 1019 369 1056 q 350 940 369 994 q 324 864 326 876 q 308 751 319 826 q 292 675 308 749 q 282 596 282 628 q 369 506 282 506 q 460 535 410 506 q 539 590 463 538 q 579 621 540 592 q 667 785 628 658 q 763 931 703 901 q 792 939 779 939 q 801 938 792 939 q 814 911 814 931 q 788 811 814 888 q 754 701 758 726 q 728 550 744 651 q 721 428 725 508 q 706 211 717 356 q 683 -3 706 207 q 638 -178 674 -101 q 507 -282 588 -282 z "},"Z":{"ha":776,"x_min":3,"x_max":826,"o":"m 826 146 q 692 74 826 97 q 578 28 640 65 q 451 -32 515 -10 q 306 -76 379 -54 q 193 -93 250 -93 q 3 4 3 -93 q 104 185 3 39 q 204 343 206 332 q 190 346 199 347 l 97 335 q 64 344 76 333 q 63 349 63 347 q 210 426 63 392 q 314 471 289 446 q 381 557 328 486 q 457 660 419 608 q 503 781 503 729 q 392 867 503 867 q 179 814 218 867 q 142 761 160 788 q 92 721 113 724 q 76 750 76 726 q 101 812 76 781 q 154 853 125 843 l 326 917 q 438 936 379 936 q 554 919 504 936 q 626 844 626 896 q 582 717 626 789 q 497 603 561 683 q 453 526 453 544 q 494 506 453 506 q 525 507 507 506 l 761 539 q 814 524 794 544 q 815 518 815 521 q 639 461 815 485 q 522 446 600 458 q 397 413 521 446 q 303 353 343 399 q 235 257 300 349 q 168 163 176 176 q 125 51 125 93 q 242 -25 125 -25 q 451 22 324 -25 q 650 106 499 40 q 796 164 782 164 q 826 146 826 164 z "},"[":{"ha":1081,"x_min":193,"x_max":888,"o":"m 888 0 l 193 0 l 193 868 l 888 868 l 888 0 m 865 22 l 865 847 l 214 847 l 214 22 l 865 22 z "},"\\":{"ha":581,"x_min":36,"x_max":507,"o":"m 447 -15 q 417 7 433 -15 l 385 17 q 322 197 358 57 q 285 356 303 276 q 168 739 228 578 q 43 1063 168 740 q 60 1108 36 1078 q 101 1138 83 1138 q 135 1118 119 1138 q 157 1082 151 1099 q 200 951 171 1039 q 290 704 235 867 q 360 410 314 606 q 417 219 374 347 q 467 115 442 167 q 507 3 507 32 q 494 -14 507 -14 l 447 -15 z "},"]":{"ha":1081,"x_min":193,"x_max":888,"o":"m 888 0 l 193 0 l 193 868 l 888 868 l 888 0 m 865 22 l 865 847 l 214 847 l 214 22 l 865 22 z "},"^":{"ha":706,"x_min":57,"x_max":663,"o":"m 86 610 q 57 622 65 610 q 57 628 57 625 q 67 654 57 644 q 214 794 128 710 q 258 864 228 813 q 304 931 285 911 q 347 972 314 949 q 393 994 379 994 q 443 950 414 994 q 481 893 463 922 l 539 817 q 606 732 572 774 q 663 642 663 657 q 653 625 663 640 q 644 608 644 610 q 613 578 639 600 q 581 557 588 557 q 549 588 565 557 q 521 632 528 625 q 338 825 440 703 q 226 721 314 799 q 158 657 193 689 q 86 610 103 610 z "},"_":{"ha":640,"x_min":-126,"x_max":764,"o":"m 764 -64 q 682 -101 764 -85 q 542 -117 606 -118 l 517 -117 l -89 -106 q -126 -96 -126 -104 q -118 -81 -126 -92 q 81 -29 -76 -29 q 347 -29 347 -29 q 586 -33 467 -32 q 764 -64 764 -40 z "},"`":{"ha":672,"x_min":215,"x_max":596,"o":"m 558 926 q 596 939 585 926 q 596 944 596 942 q 504 1054 596 960 q 428 1131 478 1079 q 378 1193 403 1161 q 315 1232 343 1232 q 254 1218 286 1232 q 215 1178 215 1203 q 307 1053 215 1128 q 433 963 331 1033 q 558 926 486 926 z "},"a":{"ha":807,"x_min":0,"x_max":908,"o":"m 908 158 q 899 131 908 144 q 810 61 861 78 q 697 47 771 47 q 538 49 682 47 q 443 89 476 49 q 408 168 438 96 q 360 226 385 226 q 272 153 331 226 q 207 63 240 108 q 151 22 193 44 q 86 0 110 0 q 0 111 0 0 q 29 239 0 172 q 86 368 47 283 q 197 524 122 440 q 349 608 272 608 q 453 568 410 608 q 504 425 497 524 q 539 272 514 313 q 601 210 560 238 q 681 183 643 183 q 857 186 681 183 q 908 158 908 188 m 349 363 q 322 437 349 404 q 254 469 296 469 q 146 386 188 469 q 110 243 110 317 q 168 146 110 146 q 207 157 186 146 q 349 363 349 226 z "},"b":{"ha":660,"x_min":-35,"x_max":721,"o":"m 721 443 q 613 368 721 399 q 474 304 492 336 q 361 125 399 174 q 185 -1 265 -1 q 108 53 140 -1 q 47 121 74 113 q -4 124 40 124 q -33 128 -24 124 q -35 135 -35 131 q 38 263 -35 146 q 65 463 54 289 q 74 642 69 551 q 161 901 82 794 q 253 967 210 967 q 301 858 301 967 q 251 576 301 732 q 204 461 250 572 q 178 344 178 399 q 199 219 178 272 q 288 147 228 147 q 350 190 325 147 q 372 342 357 246 q 472 439 385 411 q 657 479 597 479 q 721 443 721 479 z "},"c":{"ha":594,"x_min":1,"x_max":700,"o":"m 697 92 q 700 83 700 89 q 429 -26 700 26 q 267 -57 429 -26 q 206 -60 253 -60 q 64 -33 111 -60 q 1 88 1 1 q 10 182 1 150 q 68 361 46 318 q 185 507 89 397 q 269 575 217 543 q 371 611 329 611 q 456 578 419 611 q 493 497 493 546 q 474 424 493 467 q 426 374 453 374 q 363 431 404 374 q 275 489 321 489 q 144 378 200 489 q 96 200 96 283 q 181 74 96 107 q 346 53 233 53 q 497 68 403 53 q 579 86 507 69 q 660 99 631 99 q 697 92 685 99 z "},"d":{"ha":713,"x_min":13,"x_max":822,"o":"m 822 100 q 782 38 822 58 q 706 21 750 21 q 597 38 658 21 q 501 83 529 56 q 458 151 496 89 q 408 199 429 199 q 342 147 390 199 q 242 51 276 78 q 103 0 172 0 q 32 43 56 0 q 13 129 13 79 q 192 497 13 339 q 353 543 243 543 q 399 553 378 543 q 428 588 426 565 l 439 765 q 506 933 446 867 q 543 958 526 957 q 563 925 563 953 q 565 771 563 874 q 569 697 565 753 q 572 624 572 651 q 565 528 572 592 q 557 432 557 464 q 582 321 557 392 q 613 236 597 279 q 672 172 638 182 q 757 151 715 163 q 822 100 822 131 m 399 322 q 353 413 399 378 q 254 443 311 443 q 138 356 181 443 q 104 201 104 286 q 178 93 104 93 q 319 176 240 93 q 399 322 399 258 z "},"e":{"ha":568,"x_min":0,"x_max":686,"o":"m 686 121 q 642 79 686 100 q 579 56 610 63 q 249 -1 344 -1 q 0 143 0 -1 q 53 382 0 279 q 208 571 101 474 q 369 640 285 640 q 468 604 422 640 q 514 517 514 568 q 425 394 514 461 q 326 321 392 365 q 183 269 326 321 q 133 217 133 251 q 211 119 133 151 q 343 96 268 96 q 525 111 424 96 q 589 125 538 113 q 654 135 629 135 q 686 121 686 135 m 393 464 q 358 521 393 500 q 292 540 329 540 q 215 517 253 540 q 175 451 175 489 q 208 393 175 415 q 275 375 238 375 q 353 401 314 375 q 393 464 393 426 z "},"f":{"ha":399,"x_min":-151,"x_max":486,"o":"m 449 122 l 449 118 q 261 53 449 69 q 168 -29 190 47 q 156 -168 156 -71 q 159 -243 156 -193 q 163 -318 163 -293 q 119 -418 163 -381 q 85 -437 113 -425 q 49 -450 57 -450 q 1 -357 1 -450 q 14 -196 1 -293 q 38 -37 26 -117 q 25 15 42 -11 q -18 40 8 40 q -76 33 -37 40 q -132 26 -114 26 q -147 30 -143 26 q -151 39 -151 33 q -129 71 -151 51 q -32 117 -87 110 q 63 171 54 128 q 126 479 65 183 q 156 639 140 558 q 213 792 175 733 q 347 914 268 881 q 401 926 376 926 q 468 886 444 926 q 486 807 486 853 q 386 622 486 683 q 290 557 346 599 q 246 428 268 528 q 218 306 232 367 q 199 188 199 218 q 213 146 199 164 q 251 131 226 128 l 403 143 q 449 122 432 146 m 372 790 q 364 792 368 792 q 314 747 335 792 q 296 678 296 711 q 321 640 296 640 q 369 683 350 640 q 386 750 386 718 q 372 790 386 778 z "},"g":{"ha":476,"x_min":-314,"x_max":438,"o":"m 438 -264 q 428 -381 438 -332 l 396 -526 q 343 -636 385 -571 q 26 -831 215 -831 q -199 -756 -93 -831 q -314 -558 -314 -672 q -296 -446 -314 -512 q -219 -282 -268 -343 q -86 -153 -197 -254 q 68 -83 -10 -83 q 89 -87 81 -83 q 89 -94 89 -92 q 24 -140 89 -107 q -58 -179 -18 -160 q -195 -308 -142 -221 q -249 -487 -249 -394 q -224 -600 -249 -546 q -92 -719 -194 -664 q 81 -774 7 -774 q 267 -632 206 -774 q 311 -379 311 -526 q 301 -204 311 -250 q 239 106 279 -101 q 213 131 233 131 q 140 116 188 131 q 69 101 93 101 q 0 196 0 101 q 35 336 0 290 q 150 450 39 343 q 278 508 210 508 q 349 485 318 508 q 381 422 381 461 q 372 366 381 404 q 363 308 363 328 q 383 175 363 257 q 413 43 408 81 q 438 -264 438 -204 m 274 368 q 221 421 274 421 q 164 391 192 421 q 136 331 136 361 q 192 242 136 242 q 250 290 224 242 q 274 368 274 335 z "},"h":{"ha":881,"x_min":-1,"x_max":1001,"o":"m 999 76 q 911 21 1001 47 q 796 -1 836 -1 q 640 36 721 -1 q 533 146 546 81 l 503 300 q 472 340 494 340 q 449 332 463 340 q 285 163 369 250 q 158 47 285 163 q 103 31 140 31 q 41 56 83 31 q -1 93 -1 81 q 15 138 -1 96 q 57 253 28 176 q 67 272 61 261 q 164 797 115 493 q 307 1007 197 1007 q 340 993 325 1007 q 356 961 356 979 l 356 753 q 344 629 356 676 q 308 507 340 606 q 257 393 285 433 q 192 253 192 299 q 226 206 192 206 q 253 213 238 206 q 351 313 285 249 q 460 379 389 336 q 571 453 496 407 q 601 458 583 458 q 635 446 619 458 q 654 417 651 433 l 685 206 q 807 110 733 135 q 924 93 847 96 q 999 76 985 90 z "},"i":{"ha":622,"x_min":-43,"x_max":706,"o":"m 546 865 q 514 811 546 833 q 447 789 482 789 q 396 801 421 789 q 367 842 367 817 q 399 897 367 872 q 464 922 432 922 q 518 910 494 922 q 546 865 546 893 m 699 125 q 697 119 699 125 q 571 53 667 83 q 426 24 483 24 q 315 47 339 24 q 256 104 286 76 q 190 154 204 154 q 151 128 175 154 q 97 78 121 93 q -11 51 53 51 q -43 63 -42 51 q -8 86 -42 69 q 33 108 32 108 q 118 208 63 129 q 192 317 154 263 q 260 439 226 378 q 357 524 311 524 q 386 482 388 524 l 386 472 q 375 364 385 453 l 372 326 q 369 310 371 317 q 368 296 368 304 q 426 174 368 232 q 549 115 483 115 q 612 126 571 115 q 671 138 653 138 q 697 131 685 138 l 706 139 l 699 125 z "},"j":{"ha":292,"x_min":-390,"x_max":307,"o":"m 179 729 q 115 794 115 729 q 157 881 115 835 q 239 928 199 928 q 307 863 307 928 q 265 774 307 819 q 179 729 224 729 m 222 372 l 193 161 q 193 107 190 142 q 196 50 196 60 q 193 -7 196 3 l 78 -378 q -12 -544 54 -451 q -140 -681 -78 -636 q -249 -719 -196 -719 q -390 -457 -390 -719 q -378 -369 -390 -410 q -324 -314 -360 -314 q -295 -326 -311 -314 q -278 -350 -279 -337 l -247 -551 q -228 -587 -244 -568 q -193 -606 -211 -606 q -119 -536 -154 -606 q -79 -433 -108 -515 q -24 -279 -58 -382 q 24 -85 13 -154 q 42 176 33 46 q 88 407 57 378 q 169 436 118 436 q 206 413 188 436 q 222 372 225 390 z "},"k":{"ha":554,"x_min":1,"x_max":651,"o":"m 651 88 q 611 35 651 64 q 544 1 571 7 q 433 0 506 1 l 283 -4 q 211 26 239 -4 q 157 86 183 57 q 146 94 154 88 q 131 101 138 101 q 79 44 113 101 q 22 -26 44 -18 q 1 26 1 -25 q 14 129 1 67 q 33 232 31 214 q 42 337 35 267 q 68 551 50 407 q 93 857 85 685 q 106 1013 100 989 q 207 1107 128 1111 l 210 1107 q 225 1088 218 1103 q 232 1063 232 1072 l 208 850 q 193 672 204 792 q 169 529 185 625 q 172 499 167 518 q 189 479 178 479 q 208 489 200 479 q 267 567 238 528 q 335 635 301 608 q 381 675 357 656 q 436 697 411 697 q 489 607 489 697 q 464 514 489 567 q 421 425 442 469 q 394 354 413 401 q 339 285 386 339 q 303 207 303 243 q 323 157 303 182 q 367 131 343 132 l 603 119 q 634 110 617 119 q 651 88 651 100 m 344 568 q 310 553 329 568 q 200 364 200 474 q 219 309 200 332 q 269 286 238 286 q 354 367 322 286 q 379 493 379 429 q 344 568 379 568 z "},"l":{"ha":415,"x_min":38,"x_max":508,"o":"m 196 -21 q 86 -1 121 -21 q 38 96 38 25 q 54 210 38 143 q 124 514 79 311 q 186 1058 171 775 q 240 1099 199 1079 q 306 1119 281 1119 q 340 1058 340 1119 q 332 993 340 1035 q 321 929 322 940 q 293 685 315 847 q 221 401 269 590 q 186 194 186 263 q 269 61 186 61 q 372 70 303 61 q 475 79 442 79 q 507 69 499 79 l 508 65 q 374 -1 508 24 q 196 -21 274 -21 z "},"m":{"ha":1061,"x_min":32,"x_max":1151,"o":"m 1147 112 q 1149 111 1147 112 q 1151 104 1151 110 q 1138 76 1151 92 q 969 -7 1063 -7 q 908 -3 924 -7 q 815 40 860 11 q 753 118 758 78 q 731 285 753 118 q 699 333 724 333 q 625 261 668 333 q 546 128 585 194 q 444 60 494 57 l 435 61 q 406 108 404 76 q 417 314 417 307 q 404 361 417 349 q 396 363 400 363 q 363 343 378 363 q 283 192 329 279 q 203 44 243 118 q 78 -60 133 -64 l 69 -60 q 35 -6 42 -47 q 32 61 32 11 q 33 136 32 93 l 38 275 q 40 369 40 361 q 58 458 46 435 q 111 503 83 503 q 161 458 146 503 l 149 232 q 156 199 147 217 q 178 182 164 182 q 247 257 203 182 q 303 356 275 306 q 389 454 303 356 q 513 547 471 547 q 544 483 544 547 q 538 403 544 457 q 532 321 532 349 q 549 288 532 288 q 687 402 581 288 q 831 517 793 517 q 857 483 854 517 l 875 297 q 1093 113 892 125 q 1115 113 1101 113 q 1139 114 1133 114 q 1147 112 1143 114 z "},"n":{"ha":819,"x_min":-1,"x_max":922,"o":"m 921 131 q 869 75 922 110 q 797 28 800 29 q 711 0 764 10 q 621 -12 649 -12 q 486 46 563 -12 q 396 161 410 104 l 357 322 q 329 365 347 365 q 261 274 301 365 q 185 103 193 118 q 79 10 133 10 q 50 28 64 10 q 35 63 36 46 q 19 228 31 118 q 7 307 18 239 q -1 386 -1 356 q 22 488 -1 433 q 92 553 51 553 q 132 488 122 553 q 143 368 138 428 q 171 304 149 304 q 243 376 188 304 q 350 511 321 481 q 465 583 418 583 q 488 572 476 583 q 500 550 500 560 l 507 364 q 561 246 508 311 q 632 158 625 165 q 732 119 675 119 q 813 131 760 119 q 890 143 865 143 q 921 131 913 143 z "},"o":{"ha":565,"x_min":-3,"x_max":529,"o":"m 175 0 q 36 82 82 0 q -3 249 -3 149 q 29 394 -3 343 q 140 492 56 435 l 247 564 q 385 626 340 626 q 471 579 439 626 q 511 458 490 550 q 529 331 529 374 q 468 179 529 250 q 340 65 449 157 q 261 20 311 40 q 175 0 211 0 m 433 306 q 401 438 433 375 q 299 511 361 511 q 182 446 231 511 q 136 317 136 386 q 171 188 136 242 q 282 125 211 125 q 393 183 349 125 q 433 306 433 236 z "},"p":{"ha":628,"x_min":-79,"x_max":593,"o":"m 593 338 q 558 181 593 229 q 425 49 504 103 q 281 17 390 24 q 163 -33 186 11 q 140 -135 149 -57 q 123 -251 128 -233 q 107 -307 118 -269 q 63 -450 65 -444 q -39 -549 21 -549 q -79 -490 -79 -549 q -72 -415 -79 -460 q -61 -342 -61 -344 q -17 -21 -36 -136 q 21 107 -8 33 q 71 232 46 169 q 133 342 100 306 q 231 415 165 378 q 341 474 285 444 q 433 504 397 504 q 593 338 593 504 m 357 404 q 306 399 325 404 q 218 308 249 385 q 194 176 194 247 q 347 79 194 79 q 443 115 418 79 q 464 221 464 146 q 450 343 464 307 q 357 404 428 404 z "},"q":{"ha":614,"x_min":0,"x_max":660,"o":"m 660 239 q 567 101 660 179 q 493 -51 507 51 q 481 -169 490 -92 l 413 -535 q 370 -604 406 -571 q 299 -637 335 -637 q 258 -620 276 -637 q 244 -581 240 -603 l 300 -303 q 319 -174 304 -258 q 326 -133 326 -147 q 286 -101 326 -101 q 276 -99 281 -101 q 250 -43 250 -58 q 307 13 250 -39 q 364 100 364 65 q 328 133 364 133 q 216 67 292 133 q 78 0 140 0 q 24 22 47 0 q 0 74 0 43 q 25 211 0 125 q 82 336 51 303 l 158 421 q 394 551 276 551 q 508 468 460 551 q 551 324 551 394 q 545 283 551 310 q 539 242 539 256 q 554 222 539 222 q 603 243 568 222 q 649 264 639 264 q 660 239 660 264 m 385 354 q 365 417 385 390 q 311 444 346 444 q 201 350 246 444 q 165 199 165 272 q 197 146 165 146 q 317 221 250 146 q 385 354 385 296 z "},"r":{"ha":469,"x_min":-3,"x_max":531,"o":"m 72 0 q 22 21 46 0 q 0 68 -3 42 q 19 297 19 297 q 16 367 19 321 q 13 438 13 414 q 51 513 13 475 q 129 550 90 550 q 190 523 153 550 q 247 496 226 496 q 340 551 265 496 q 461 607 415 607 q 503 597 482 607 q 531 568 531 586 q 464 528 531 549 q 383 506 424 517 q 221 319 357 499 q 186 231 193 283 q 183 137 185 219 q 143 25 182 54 q 72 0 111 0 z "},"s":{"ha":586,"x_min":1,"x_max":576,"o":"m 576 154 q 479 36 576 83 q 317 -1 399 -1 q 126 50 236 -1 q 1 175 1 108 q 35 207 1 207 q 194 138 72 207 q 369 69 317 69 q 428 113 428 69 q 383 215 428 161 q 301 294 361 242 q 150 424 251 338 q 108 524 108 460 q 176 619 108 588 q 299 656 182 622 q 399 671 351 671 q 518 610 518 671 q 506 579 518 593 q 476 565 493 565 q 389 588 447 565 q 303 611 331 611 q 253 549 253 611 q 310 451 253 493 q 408 388 358 419 q 465 326 428 365 q 542 249 503 286 q 576 154 576 207 z "},"t":{"ha":572,"x_min":24,"x_max":707,"o":"m 414 -4 q 289 7 354 -4 q 203 14 246 10 q 117 40 160 18 q 60 149 60 71 q 74 296 60 222 q 82 333 74 301 q 88 371 88 357 q 58 394 88 375 q 24 431 29 413 q 85 472 26 433 q 131 529 121 496 q 169 657 144 572 q 199 788 183 722 q 238 925 221 889 q 282 969 249 947 q 340 992 315 992 q 376 954 376 992 q 338 839 376 942 q 311 683 328 814 q 294 554 294 565 q 337 500 294 503 q 424 494 379 497 q 501 465 501 486 q 479 446 501 454 l 335 432 q 257 371 272 425 q 231 225 231 279 q 236 178 231 197 q 349 88 254 121 q 500 63 425 63 q 621 106 568 63 q 689 150 674 150 q 697 149 689 150 q 707 131 707 142 q 617 44 707 86 q 496 3 556 24 q 414 -4 476 -4 z "},"u":{"ha":728,"x_min":8,"x_max":861,"o":"m 861 85 q 851 72 861 81 q 839 63 840 64 q 651 1 790 1 q 536 32 582 1 q 478 88 515 44 q 429 118 451 118 q 371 81 408 118 q 293 10 317 26 q 176 -28 239 -28 q 135 -24 153 -28 q 71 -10 103 -17 q 32 50 51 0 q 8 150 8 114 q 31 375 8 294 q 68 511 63 496 q 156 626 110 626 q 169 604 169 626 q 145 506 169 583 q 121 381 121 428 q 139 222 121 361 q 186 151 144 176 q 269 128 222 128 q 414 203 354 128 q 479 360 464 267 q 567 528 506 528 q 593 496 585 528 q 574 319 574 349 q 594 213 574 293 q 633 153 614 182 q 689 115 663 115 q 814 126 689 115 q 861 85 861 110 z "},"v":{"ha":615,"x_min":0,"x_max":688,"o":"m 688 690 q 651 639 688 669 q 599 599 625 618 q 515 475 564 572 q 453 326 474 393 q 268 -25 339 -25 q 225 -1 236 -25 q 172 108 208 36 q 114 210 151 142 q 65 321 99 247 q 24 397 44 358 q 0 479 0 443 q 20 542 0 513 q 72 571 40 571 q 99 561 83 571 q 118 542 114 551 q 176 403 136 494 q 236 288 196 364 q 269 214 253 251 q 319 160 297 160 q 346 182 339 160 q 385 307 357 225 q 493 524 418 393 q 661 713 601 713 q 688 690 688 713 z "},"w":{"ha":800,"x_min":0,"x_max":768,"o":"m 768 314 q 746 206 768 253 q 663 78 713 135 q 540 1 597 1 q 429 64 463 1 q 397 179 415 90 q 358 242 385 242 q 281 179 335 242 q 179 63 188 71 q 72 0 117 0 q 0 271 0 0 q 8 540 0 271 q 38 606 10 565 q 89 647 65 647 q 96 646 89 647 q 113 614 114 636 q 99 446 99 446 q 171 151 99 151 q 344 324 226 151 q 392 403 368 364 q 453 465 432 465 q 481 431 467 465 q 497 327 490 401 q 517 219 503 253 q 593 144 539 165 q 621 139 606 139 q 675 247 675 139 q 655 374 675 292 q 635 493 635 457 q 649 568 635 526 q 692 622 665 622 q 717 608 707 622 q 753 468 735 585 q 768 314 768 364 z "},"x":{"ha":601,"x_min":14,"x_max":639,"o":"m 639 669 q 632 649 639 660 q 532 590 617 622 q 447 532 488 574 q 376 451 413 492 q 356 394 356 428 q 454 270 356 339 q 553 156 553 201 q 517 101 553 121 q 449 85 486 85 q 365 118 400 85 q 315 180 342 149 q 258 211 289 211 q 176 144 211 211 q 124 19 150 82 q 51 -49 92 -49 q 36 -18 36 -43 q 106 131 36 33 q 175 281 175 229 q 133 360 175 317 q 56 436 94 397 q 14 539 14 485 q 35 602 14 574 q 92 631 57 631 q 194 541 135 631 q 300 451 254 451 q 368 496 328 451 q 424 560 396 528 q 603 694 557 694 q 639 669 639 694 z "},"y":{"ha":633,"x_min":-112,"x_max":581,"o":"m 257 -646 q 149 -608 208 -646 q 60 -531 96 -575 q 32 -446 32 -496 q 43 -385 32 -419 q 72 -336 56 -344 q 104 -399 79 -336 q 140 -481 132 -469 q 300 -567 207 -567 q 408 -497 374 -567 q 444 -364 426 -461 q 457 -232 457 -294 q 436 -42 457 -196 q 422 50 426 33 q 376 118 406 118 q 307 74 363 118 q 225 29 251 29 q 132 131 132 29 q 150 242 132 175 q 190 351 168 310 q 235 463 235 436 q 168 525 235 525 q 75 510 128 525 q -10 471 18 493 q -108 394 -51 433 q -112 403 -112 397 q -108 419 -112 408 q -17 518 -85 479 q 110 576 -15 519 q 244 610 183 610 q 338 546 338 610 q 303 450 338 517 q 258 346 264 376 q 246 240 246 283 q 301 139 246 139 q 335 149 315 139 q 363 171 356 160 l 449 313 q 485 326 467 326 q 531 265 519 326 q 540 179 535 222 q 567 67 554 124 q 581 -46 581 3 q 571 -214 581 -142 q 542 -358 569 -225 q 433 -544 529 -419 q 257 -646 356 -646 z "},"z":{"ha":615,"x_min":1,"x_max":717,"o":"m 715 493 q 696 458 717 478 l 461 389 q 321 251 371 363 q 304 185 304 215 q 324 126 304 150 q 381 101 344 101 q 478 116 413 101 q 569 131 544 131 q 593 115 593 131 q 567 73 593 94 q 436 25 542 51 q 297 0 336 0 q 224 21 256 0 q 185 83 185 44 q 224 204 185 125 q 263 301 263 283 q 224 332 263 332 q 135 310 196 332 q 47 289 75 289 q 1 313 1 289 q 108 392 1 346 q 163 484 147 408 q 213 581 179 560 q 308 642 303 639 q 414 672 365 672 q 471 642 450 672 q 489 579 489 617 q 486 550 489 569 q 483 521 483 531 q 521 489 483 485 l 674 507 q 715 493 706 511 m 294 561 q 228 535 258 561 q 199 472 199 508 q 217 433 199 449 q 258 418 235 418 q 326 443 296 418 q 357 506 357 468 q 294 561 357 561 z "},"{":{"ha":1081,"x_min":193,"x_max":888,"o":"m 888 0 l 193 0 l 193 868 l 888 868 l 888 0 m 865 22 l 865 847 l 214 847 l 214 22 l 865 22 z "},"|":{"ha":581,"x_min":200,"x_max":350,"o":"m 282 -47 q 257 -22 268 -46 l 229 -10 q 218 103 218 21 q 224 247 218 161 q 231 339 228 293 q 236 499 236 449 q 231 733 236 654 q 201 1068 231 733 q 233 1112 200 1083 q 283 1139 265 1140 q 312 1116 301 1138 q 322 1078 322 1094 q 325 942 324 1032 q 336 814 326 918 q 342 686 343 733 q 322 386 335 586 q 321 190 314 257 q 338 104 329 147 q 350 -6 350 32 q 329 -51 350 -53 l 282 -47 z "},"":{"ha":821,"x_min":0,"x_max":786,"o":"m 786 1169 q 768 1083 786 1131 q 714 1025 746 1025 q 683 1063 694 1025 q 674 1118 674 1092 q 692 1203 674 1153 q 740 1263 713 1263 q 786 1169 786 1263 m 467 1142 q 419 1017 467 1017 q 357 1067 385 1017 q 335 1149 335 1110 q 356 1231 335 1185 q 411 1286 379 1286 q 456 1225 440 1286 q 467 1142 467 1183 m 768 454 q 723 393 768 438 q 678 303 678 349 q 706 219 678 278 q 735 125 735 161 q 719 51 735 92 q 675 0 701 0 q 614 78 644 0 q 586 175 596 126 q 565 296 579 215 q 513 344 557 344 q 433 319 492 344 q 351 290 369 293 q 233 268 301 285 q 165 194 193 243 q 6 -25 42 -25 q 1 -22 3 -25 q 0 -12 0 -19 q 69 110 0 32 q 138 219 138 188 q 112 268 138 239 q 86 317 86 297 q 172 388 86 351 q 293 476 269 429 q 449 799 376 642 q 499 894 468 829 q 588 1032 546 1032 q 619 986 614 1032 q 619 922 619 983 q 629 790 619 876 q 635 613 635 747 q 662 535 635 553 q 718 501 689 518 q 768 454 768 468 m 503 785 q 431 685 479 785 q 385 579 408 632 q 347 519 365 549 q 322 456 322 481 q 385 419 322 419 q 494 442 451 419 q 546 529 549 471 l 546 544 l 529 735 q 503 785 525 785 z "},"":{"ha":913,"x_min":0,"x_max":910,"o":"m 910 394 l 910 392 q 847 349 910 386 q 783 272 783 313 q 810 188 783 258 q 847 93 829 140 q 824 27 846 54 q 763 0 801 0 q 719 12 740 0 q 661 206 699 24 q 574 276 646 276 q 493 261 542 276 q 414 239 425 242 q 283 218 349 229 q 183 144 211 200 q 139 60 150 76 q 68 7 104 7 q 50 32 50 7 q 101 123 50 61 q 151 207 151 185 q 113 253 151 231 q 39 292 40 292 q 0 363 0 321 q 29 419 0 392 q 88 447 58 447 q 159 396 118 447 q 226 344 200 344 q 319 436 267 344 q 433 636 358 503 q 478 735 447 669 q 535 824 497 764 q 597 931 565 876 q 692 996 643 996 q 731 979 714 996 q 747 940 747 963 q 742 858 747 913 q 736 778 736 804 q 744 713 736 756 q 751 649 751 669 q 747 494 751 649 q 779 425 746 444 q 849 409 800 414 q 910 394 897 404 m 613 399 q 601 544 613 433 q 578 683 588 669 q 571 686 575 686 q 519 632 554 686 q 476 558 497 594 q 425 478 460 531 q 382 421 403 449 q 356 356 356 385 q 446 311 356 311 q 613 399 613 311 m 672 1013 q 564 1161 564 1013 q 585 1251 564 1222 q 661 1307 601 1274 l 693 1325 q 785 1367 765 1367 q 842 1336 821 1367 q 868 1200 868 1296 q 846 1115 868 1144 q 781 1056 836 1101 q 672 1013 731 1013 m 788 1183 q 729 1276 788 1276 q 686 1251 697 1276 q 678 1192 678 1235 q 740 1107 678 1107 q 782 1128 772 1107 q 788 1183 788 1140 z "},"":{"ha":861,"x_min":0,"x_max":939,"o":"m 492 -11 q 461 -179 492 -87 q 408 -326 417 -308 q 319 -453 371 -411 q 283 -471 297 -471 l 278 -469 q 268 -443 268 -462 q 292 -356 268 -418 q 324 -265 319 -283 q 335 -122 326 -217 q 371 3 340 -50 q 18 117 64 18 q 0 208 0 156 q 32 336 0 281 q 115 443 47 361 q 217 561 149 485 q 329 649 247 590 q 451 728 344 660 q 567 771 488 750 q 692 792 646 792 q 822 746 758 792 q 892 631 892 696 q 839 571 892 571 q 771 607 810 571 q 699 674 703 671 q 597 710 650 710 q 293 533 451 710 q 201 421 292 532 q 144 274 144 351 q 292 106 144 163 q 532 64 401 64 q 888 99 588 64 q 938 92 919 103 q 939 89 939 90 q 743 32 939 60 q 492 4 614 14 q 492 -11 492 -3 z "},"":{"ha":694,"x_min":19,"x_max":896,"o":"m 807 844 q 786 776 807 806 q 725 743 763 743 q 672 797 689 743 q 646 897 660 847 q 571 951 624 951 q 479 919 525 951 q 394 824 440 892 q 346 707 346 750 q 406 614 346 658 q 468 542 467 569 q 425 517 460 517 q 351 524 400 517 q 278 531 301 531 q 211 486 231 531 l 168 392 q 154 326 154 358 q 198 193 154 265 q 297 101 242 121 l 419 60 q 506 47 453 47 q 624 62 546 47 q 742 76 703 76 q 763 72 756 76 q 736 53 765 63 q 617 14 696 38 q 467 -1 550 -1 q 256 19 319 -1 q 19 274 19 97 q 40 396 19 319 q 91 505 63 483 q 150 549 119 526 q 200 607 194 586 q 232 740 231 736 q 295 849 249 792 q 368 918 342 906 l 494 982 q 642 1014 558 1014 q 760 965 713 1014 q 807 844 807 915 m 553 1113 q 517 1125 526 1113 q 515 1131 515 1128 q 528 1157 515 1147 q 642 1239 569 1183 q 726 1343 683 1292 q 843 1404 779 1404 q 896 1364 896 1404 q 804 1239 896 1314 q 678 1149 782 1219 q 553 1113 625 1113 z "},"":{"ha":997,"x_min":-3,"x_max":1267,"o":"m 1263 990 q 1267 982 1267 988 q 1182 878 1267 974 q 1056 674 1181 876 q 993 574 1035 640 q 871 333 907 426 q 821 172 854 279 q 776 57 794 86 q 676 -1 740 -1 q 613 38 638 -1 q 571 163 599 60 q 542 274 547 246 q 521 431 542 274 q 511 456 519 440 q 494 472 503 472 q 475 458 481 472 l 426 325 q 369 240 417 299 q 297 151 297 151 q 211 79 256 104 q 81 24 115 24 q 14 76 38 24 q -3 168 -3 117 q 26 279 -3 222 q 110 346 61 346 q 137 238 135 346 q 175 129 139 129 q 263 194 219 129 q 378 385 326 292 q 413 494 386 400 q 454 644 426 544 q 489 790 472 718 q 593 888 524 888 q 646 811 646 888 q 641 753 646 792 q 636 696 636 715 q 649 567 636 644 l 688 332 q 700 303 689 319 q 721 288 711 288 q 776 344 747 288 q 813 424 794 383 q 989 711 883 553 q 1061 813 1014 744 q 1122 908 1082 844 q 1184 962 1138 932 q 1256 992 1231 992 l 1263 990 m 1117 1172 q 1065 1069 1076 1086 q 981 1021 1025 1011 q 869 1117 929 1029 q 785 1204 810 1204 q 716 1138 763 1204 q 624 1068 669 1071 q 599 1078 599 1065 q 642 1142 599 1094 q 707 1214 675 1178 q 761 1288 733 1251 q 826 1325 789 1325 q 881 1307 858 1325 q 904 1279 882 1306 q 963 1188 914 1267 q 1017 1144 990 1142 q 1072 1242 1044 1147 q 1133 1339 1100 1336 q 1163 1299 1163 1342 q 1117 1172 1163 1265 z "},"":{"ha":725,"x_min":-8,"x_max":706,"o":"m 706 1201 q 689 1126 706 1163 q 633 1083 668 1083 q 569 1120 596 1083 q 542 1194 542 1157 q 569 1272 542 1231 q 632 1313 597 1313 q 689 1274 668 1313 q 706 1201 706 1240 m 438 1165 q 418 1088 438 1132 q 367 1035 396 1035 q 311 1076 331 1035 q 294 1149 294 1108 q 313 1228 294 1185 q 365 1281 335 1281 q 421 1239 401 1281 q 438 1165 438 1206 m 697 456 q 640 253 697 350 q 490 103 583 157 q 372 33 432 68 q 243 -1 304 -1 q -8 381 -8 -1 q 56 671 -8 556 q 265 881 117 781 q 367 914 315 914 q 564 813 463 914 q 679 621 660 718 q 697 456 697 531 m 625 465 q 596 610 625 542 q 479 757 561 689 q 308 831 389 831 q 238 799 267 831 q 197 729 221 779 q 142 604 151 632 q 124 474 124 547 q 168 233 124 333 q 349 99 226 99 q 429 118 386 99 q 578 261 525 163 q 625 465 625 353 z "},"":{"ha":983,"x_min":3,"x_max":978,"o":"m 572 1263 q 557 1181 572 1219 q 500 1129 536 1129 q 469 1134 490 1129 q 436 1139 447 1139 q 390 1126 419 1139 q 343 1113 360 1113 q 278 1226 278 1113 q 292 1310 278 1268 q 342 1367 310 1367 q 386 1328 364 1367 q 419 1276 411 1282 l 422 1276 q 469 1321 435 1276 q 531 1365 503 1365 q 564 1322 551 1365 q 572 1263 572 1292 m 978 200 q 932 139 978 165 q 854 115 892 115 q 783 129 822 115 q 674 211 708 157 q 638 307 657 239 q 600 374 622 360 q 572 360 582 375 q 480 224 508 258 q 363 110 451 190 q 275 38 301 54 q 169 0 219 0 q 3 365 3 0 q 4 576 3 372 q 14 844 4 699 q 81 913 40 913 q 110 898 96 913 q 124 868 124 883 q 118 755 124 831 q 113 642 113 679 q 129 333 113 642 q 167 207 133 265 q 268 136 207 136 q 388 175 338 136 q 465 275 424 206 q 550 433 533 390 q 579 608 579 507 q 576 680 579 632 q 572 753 572 728 q 622 910 572 840 q 661 942 644 942 q 689 913 682 942 q 699 825 696 883 q 704 733 704 735 q 747 482 718 588 q 781 369 771 396 q 843 269 810 294 q 922 240 850 264 q 978 200 978 222 z "},"":{"ha":807,"x_min":0,"x_max":908,"o":"m 908 158 q 899 131 908 144 q 810 61 861 78 q 697 47 771 47 q 538 49 682 47 q 443 89 476 49 q 408 168 438 96 q 360 226 385 226 q 272 153 331 226 q 207 63 240 108 q 151 22 193 44 q 86 0 110 0 q 0 111 0 0 q 29 239 0 172 q 86 368 47 283 q 197 524 122 440 q 349 608 272 608 q 453 568 410 608 q 504 425 497 524 q 539 272 514 313 q 601 210 560 238 q 681 183 643 183 q 857 186 681 183 q 908 158 908 188 m 349 363 q 322 437 349 404 q 254 469 296 469 q 146 386 188 469 q 110 243 110 317 q 168 146 110 146 q 207 157 186 146 q 349 363 349 226 m 378 818 q 342 831 351 818 q 340 836 340 833 q 353 863 340 853 q 467 944 394 889 q 551 1049 508 997 q 668 1110 604 1110 q 721 1069 721 1110 q 629 944 721 1019 q 503 854 607 925 q 378 818 450 818 z "},"":{"ha":807,"x_min":0,"x_max":908,"o":"m 908 158 q 899 131 908 144 q 810 61 861 78 q 697 47 771 47 q 538 49 682 47 q 443 89 476 49 q 408 168 438 96 q 360 226 385 226 q 272 153 331 226 q 207 63 240 108 q 151 22 193 44 q 86 0 110 0 q 0 111 0 0 q 29 239 0 172 q 86 368 47 283 q 197 524 122 440 q 349 608 272 608 q 453 568 410 608 q 504 425 497 524 q 539 272 514 313 q 601 210 560 238 q 681 183 643 183 q 857 186 681 183 q 908 158 908 188 m 349 363 q 322 437 349 404 q 254 469 296 469 q 146 386 188 469 q 110 243 110 317 q 168 146 110 146 q 207 157 186 146 q 349 363 349 226 m 546 835 q 583 847 572 835 q 583 853 583 850 q 492 963 583 868 q 415 1039 465 988 q 365 1101 390 1069 q 303 1140 331 1140 q 242 1126 274 1140 q 203 1086 203 1111 q 294 961 203 1036 q 421 871 318 942 q 546 835 474 835 z "},"":{"ha":807,"x_min":0,"x_max":908,"o":"m 908 158 q 899 131 908 144 q 810 61 861 78 q 697 47 771 47 q 538 49 682 47 q 443 89 476 49 q 408 168 438 96 q 360 226 385 226 q 272 153 331 226 q 207 63 240 108 q 151 22 193 44 q 86 0 110 0 q 0 111 0 0 q 29 239 0 172 q 86 368 47 283 q 197 524 122 440 q 349 608 272 608 q 453 568 410 608 q 504 425 497 524 q 539 272 514 313 q 601 210 560 238 q 681 183 643 183 q 857 186 681 183 q 908 158 908 188 m 349 363 q 322 437 349 404 q 254 469 296 469 q 146 386 188 469 q 110 243 110 317 q 168 146 110 146 q 207 157 186 146 q 349 363 349 226 m 165 751 q 136 764 143 751 q 135 769 135 767 q 146 796 135 786 q 233 878 176 822 q 276 947 247 894 q 324 1014 304 994 q 396 1050 343 1050 q 443 1011 418 1050 q 482 949 463 979 l 542 872 q 613 763 613 778 q 613 757 613 760 q 583 744 604 744 q 488 781 528 744 q 356 907 442 819 q 246 804 333 882 q 165 751 186 751 z "},"":{"ha":665,"x_min":-1,"x_max":739,"o":"m 522 878 q 500 790 522 826 q 425 747 472 747 q 396 768 414 747 q 386 790 393 772 q 376 808 379 808 q 335 763 360 808 q 254 871 254 789 q 271 947 254 907 q 324 996 292 996 q 367 958 342 996 q 399 919 393 919 q 460 961 401 919 q 472 963 467 963 q 522 878 522 963 m 739 126 q 625 54 739 89 q 481 25 529 25 q 374 78 422 25 q 306 132 326 132 q 218 65 289 132 q 97 -1 147 -1 q 24 39 51 -1 q -1 122 -1 75 q 60 307 -1 203 q 173 463 93 363 q 331 564 253 564 q 428 472 410 564 q 443 322 435 397 q 565 163 483 165 q 661 163 613 163 q 739 126 739 156 m 326 390 q 258 457 326 457 q 179 424 214 457 q 128 317 156 400 q 101 196 101 235 q 128 140 101 161 q 190 118 156 118 q 274 169 249 118 q 304 274 279 179 q 326 390 326 361 z "},"":{"ha":807,"x_min":0,"x_max":908,"o":"m 908 158 q 899 131 908 144 q 810 61 861 78 q 697 47 771 47 q 538 49 682 47 q 443 89 476 49 q 408 168 438 96 q 360 226 385 226 q 272 153 331 226 q 207 63 240 108 q 151 22 193 44 q 86 0 110 0 q 0 111 0 0 q 29 239 0 172 q 86 368 47 283 q 197 524 122 440 q 349 608 272 608 q 453 568 410 608 q 504 425 497 524 q 539 272 514 313 q 601 210 560 238 q 681 183 643 183 q 857 186 681 183 q 908 158 908 188 m 349 363 q 322 437 349 404 q 254 469 296 469 q 146 386 188 469 q 110 243 110 317 q 168 146 110 146 q 207 157 186 146 q 349 363 349 226 m 606 960 q 554 857 565 874 q 469 808 514 799 q 358 904 418 817 q 274 992 299 992 q 205 925 251 992 q 113 856 158 858 q 88 865 88 853 q 131 929 88 882 q 196 1001 164 965 q 250 1076 222 1039 q 315 1113 278 1113 q 369 1094 347 1113 q 393 1067 371 1093 q 451 975 403 1054 q 506 932 479 929 q 561 1029 533 935 q 622 1126 589 1124 q 651 1086 651 1129 q 606 960 651 1053 z "},"":{"ha":807,"x_min":0,"x_max":908,"o":"m 908 158 q 899 131 908 144 q 810 61 861 78 q 697 47 771 47 q 538 49 682 47 q 443 89 476 49 q 408 168 438 96 q 360 226 385 226 q 272 153 331 226 q 207 63 240 108 q 151 22 193 44 q 86 0 110 0 q 0 111 0 0 q 29 239 0 172 q 86 368 47 283 q 197 524 122 440 q 349 608 272 608 q 453 568 410 608 q 504 425 497 524 q 539 272 514 313 q 601 210 560 238 q 681 183 643 183 q 857 186 681 183 q 908 158 908 188 m 349 363 q 322 437 349 404 q 254 469 296 469 q 146 386 188 469 q 110 243 110 317 q 168 146 110 146 q 207 157 186 146 q 349 363 349 226 m 400 661 q 292 810 292 661 q 313 900 292 871 q 389 956 329 922 l 421 974 q 513 1015 493 1015 q 568 983 549 1015 q 596 849 596 943 q 574 764 596 793 q 508 704 564 750 q 400 661 458 661 m 515 832 q 457 925 515 925 q 414 900 425 925 q 406 840 406 883 q 468 756 406 756 q 508 776 500 756 q 515 832 515 789 z "},"":{"ha":608,"x_min":1,"x_max":700,"o":"m 307 -50 q 276 -201 304 -115 q 225 -347 251 -275 q 198 -387 215 -375 q 163 -410 181 -399 q 126 -426 140 -426 l 121 -426 q 111 -400 111 -419 q 122 -344 111 -379 q 138 -288 136 -303 q 146 -172 140 -274 q 167 -58 151 -101 q 67 -35 106 -54 q 32 -3 54 -29 q 6 37 10 24 q 1 88 1 50 q 10 182 1 150 q 68 361 46 318 q 185 507 89 397 q 269 575 217 543 q 371 611 329 611 q 456 578 419 611 q 493 497 493 546 q 474 424 493 465 q 426 374 453 374 q 363 431 404 374 q 275 489 321 489 q 144 378 200 489 q 96 200 96 283 q 181 74 96 107 q 346 53 233 53 q 497 68 403 53 q 579 86 507 69 q 660 99 631 99 q 697 92 685 99 q 700 83 700 89 q 429 -26 700 25 l 307 -50 z "},"":{"ha":596,"x_min":0,"x_max":774,"o":"m 686 121 q 642 79 686 100 q 579 56 610 63 q 249 -1 344 -1 q 0 143 0 -1 q 53 382 0 279 q 208 571 101 474 q 369 640 285 640 q 468 604 422 640 q 514 517 514 568 q 425 394 514 461 q 326 321 392 365 q 183 269 326 321 q 133 217 133 251 q 211 119 133 151 q 343 96 268 96 q 525 111 424 96 q 589 125 538 113 q 654 135 629 135 q 686 121 686 135 m 393 464 q 358 521 393 500 q 292 540 329 540 q 215 517 253 540 q 175 451 175 489 q 208 393 175 415 q 275 375 238 375 q 353 401 314 375 q 393 464 393 426 m 431 797 q 394 810 404 797 q 393 815 393 813 q 406 842 393 832 q 519 924 447 868 q 604 1028 561 976 q 721 1089 657 1089 q 774 1049 774 1089 q 682 924 774 999 q 556 833 660 904 q 431 797 503 797 z "},"":{"ha":596,"x_min":0,"x_max":686,"o":"m 686 121 q 642 79 686 100 q 579 56 610 63 q 249 -1 344 -1 q 0 143 0 -1 q 53 382 0 279 q 208 571 101 474 q 369 640 285 640 q 468 604 422 640 q 514 517 514 568 q 425 394 514 461 q 326 321 392 365 q 183 269 326 321 q 133 217 133 251 q 211 119 133 151 q 343 96 268 96 q 525 111 424 96 q 589 125 538 113 q 654 135 629 135 q 686 121 686 135 m 393 464 q 358 521 393 500 q 292 540 329 540 q 215 517 253 540 q 175 451 175 489 q 208 393 175 415 q 275 375 238 375 q 353 401 314 375 q 393 464 393 426 m 558 926 q 596 939 585 926 q 596 944 596 942 q 504 1054 596 960 q 428 1131 478 1079 q 378 1193 403 1161 q 315 1232 343 1232 q 254 1218 286 1232 q 215 1178 215 1203 q 307 1053 215 1128 q 433 963 331 1033 q 558 926 486 926 z "},"":{"ha":596,"x_min":0,"x_max":686,"o":"m 686 121 q 642 79 686 100 q 579 56 610 63 q 249 -1 344 -1 q 0 143 0 -1 q 53 382 0 279 q 208 571 101 474 q 369 640 285 640 q 468 604 422 640 q 514 517 514 568 q 425 394 514 461 q 326 321 392 365 q 183 269 326 321 q 133 217 133 251 q 211 119 133 151 q 343 96 268 96 q 525 111 424 96 q 589 125 538 113 q 654 135 629 135 q 686 121 686 135 m 393 464 q 358 521 393 500 q 292 540 329 540 q 215 517 253 540 q 175 451 175 489 q 208 393 175 415 q 275 375 238 375 q 353 401 314 375 q 393 464 393 426 m 171 746 q 142 758 149 746 q 140 764 140 761 q 151 790 140 781 q 239 872 182 817 q 282 942 253 889 q 329 1008 310 989 q 401 1044 349 1044 q 449 1006 424 1044 q 488 943 468 974 l 547 867 q 618 757 618 772 q 618 751 618 754 q 589 739 610 739 q 493 775 533 739 q 361 901 447 814 q 251 799 339 876 q 171 746 192 746 z "},"":{"ha":596,"x_min":0,"x_max":686,"o":"m 686 121 q 642 79 686 100 q 579 56 610 63 q 249 -1 344 -1 q 0 143 0 -1 q 53 382 0 279 q 208 571 101 474 q 369 640 285 640 q 468 604 422 640 q 514 517 514 568 q 425 394 514 461 q 326 321 392 365 q 183 269 326 321 q 133 217 133 251 q 211 119 133 151 q 343 96 268 96 q 525 111 424 96 q 589 125 538 113 q 654 135 629 135 q 686 121 686 135 m 393 464 q 358 521 393 500 q 292 540 329 540 q 215 517 253 540 q 175 451 175 489 q 208 393 175 415 q 275 375 238 375 q 353 401 314 375 q 393 464 393 426 m 564 879 q 542 793 564 829 q 467 749 515 749 q 438 771 457 749 q 428 792 435 774 q 419 810 421 810 q 376 764 401 810 q 296 872 296 790 q 314 949 296 910 q 365 997 335 997 q 410 960 385 997 q 440 922 436 922 q 501 963 443 922 q 514 965 508 965 q 564 879 564 965 z "},"":{"ha":558,"x_min":-107,"x_max":658,"o":"m 635 125 q 633 119 635 125 q 507 53 603 83 q 363 24 419 24 q 251 47 275 24 q 192 104 221 76 q 126 154 140 154 q 88 128 111 154 q 33 78 57 93 q -75 51 -11 51 q -107 63 -106 51 q -72 86 -106 69 q -31 108 -32 108 q 54 208 -3 129 q 128 317 90 263 q 196 439 161 378 q 293 524 247 524 q 322 482 324 524 l 322 472 q 311 364 321 453 l 307 326 q 305 310 306 317 q 304 296 304 304 q 362 174 304 232 q 485 115 419 115 q 548 126 507 115 q 606 138 589 138 q 633 131 619 138 l 642 139 l 635 125 m 315 767 q 279 779 289 767 q 278 785 278 782 q 290 811 278 801 q 404 893 332 838 q 489 997 446 946 q 606 1058 542 1058 q 658 1018 658 1058 q 567 893 658 968 q 440 803 544 874 q 315 767 388 767 z "},"":{"ha":558,"x_min":-107,"x_max":642,"o":"m 635 125 q 633 119 635 125 q 507 53 603 83 q 363 24 419 24 q 251 47 275 24 q 192 104 221 76 q 126 154 140 154 q 88 128 111 154 q 33 78 57 93 q -75 51 -11 51 q -107 63 -106 51 q -72 86 -106 69 q -31 108 -32 108 q 54 208 -3 129 q 128 317 90 263 q 196 439 161 378 q 293 524 247 524 q 322 482 324 524 l 322 472 q 311 364 321 453 l 307 326 q 305 310 306 317 q 304 296 304 304 q 362 174 304 232 q 485 115 419 115 q 548 126 507 115 q 606 138 589 138 q 633 131 619 138 l 642 139 l 635 125 m 368 806 q 406 818 394 806 q 406 824 406 821 q 314 933 406 839 q 238 1010 288 958 q 188 1072 213 1040 q 125 1111 153 1111 q 64 1097 96 1111 q 25 1057 25 1082 q 117 932 25 1007 q 243 842 140 913 q 368 806 296 806 z "},"":{"ha":558,"x_min":-107,"x_max":642,"o":"m 635 125 q 633 119 635 125 q 507 53 603 83 q 363 24 419 24 q 251 47 275 24 q 192 104 221 76 q 126 154 140 154 q 88 128 111 154 q 33 78 57 93 q -75 51 -11 51 q -107 63 -106 51 q -72 86 -106 69 q -31 108 -32 108 q 54 208 -3 129 q 128 317 90 263 q 196 439 161 378 q 293 524 247 524 q 322 482 324 524 l 322 472 q 311 364 321 453 l 307 326 q 305 310 306 317 q 304 296 304 304 q 362 174 304 232 q 485 115 419 115 q 548 126 507 115 q 606 138 589 138 q 633 131 619 138 l 642 139 l 635 125 m 101 654 q 72 667 79 654 q 71 672 71 669 q 82 699 71 689 q 169 781 113 725 q 213 850 183 797 q 260 917 240 897 q 332 953 279 953 q 379 914 354 953 q 418 851 399 882 l 478 775 q 549 665 549 681 q 549 660 549 663 q 519 647 540 647 q 424 683 464 647 q 292 810 378 722 q 182 707 269 785 q 101 654 122 654 z "},"":{"ha":558,"x_min":-107,"x_max":642,"o":"m 635 125 q 633 119 635 125 q 507 53 603 83 q 363 24 419 24 q 251 47 275 24 q 192 104 221 76 q 126 154 140 154 q 88 128 111 154 q 33 78 57 93 q -75 51 -11 51 q -107 63 -106 51 q -72 86 -106 69 q -31 108 -32 108 q 54 208 -3 129 q 128 317 90 263 q 196 439 161 378 q 293 524 247 524 q 322 482 324 524 l 322 472 q 311 364 321 453 l 307 326 q 305 310 306 317 q 304 296 304 304 q 362 174 304 232 q 485 115 419 115 q 548 126 507 115 q 606 138 589 138 q 633 131 619 138 l 642 139 l 635 125 m 511 953 q 489 865 511 901 q 414 822 463 822 q 385 843 404 822 q 375 865 382 847 q 367 883 368 883 q 324 838 349 883 q 243 946 243 864 q 261 1022 243 982 q 313 1071 282 1071 q 357 1033 332 1071 q 388 994 382 994 q 449 1036 390 994 q 461 1038 456 1038 q 511 953 511 1038 z "},"":{"ha":819,"x_min":-1,"x_max":922,"o":"m 921 131 q 869 75 922 110 q 797 28 800 29 q 711 0 764 10 q 621 -12 649 -12 q 486 46 563 -12 q 396 161 410 104 l 357 322 q 329 365 347 365 q 261 274 301 365 q 185 103 193 118 q 79 10 133 10 q 50 28 64 10 q 35 63 36 46 q 19 228 31 118 q 7 307 18 239 q -1 386 -1 356 q 22 488 -1 433 q 92 553 51 553 q 132 488 122 553 q 143 368 138 428 q 171 304 149 304 q 243 376 188 304 q 350 511 321 481 q 465 583 418 583 q 488 572 476 583 q 500 550 500 560 l 507 364 q 561 246 508 311 q 632 158 625 165 q 732 119 675 119 q 813 131 760 119 q 890 143 865 143 q 921 131 913 143 m 606 960 q 554 857 565 874 q 469 808 514 799 q 358 904 418 817 q 274 992 299 992 q 205 925 251 992 q 113 856 158 858 q 88 865 88 853 q 131 929 88 882 q 196 1001 164 965 q 250 1076 222 1039 q 315 1113 278 1113 q 369 1094 347 1113 q 393 1067 371 1093 q 451 975 403 1054 q 506 932 479 929 q 561 1029 533 935 q 622 1126 589 1124 q 651 1086 651 1129 q 606 960 651 1053 z "},"":{"ha":593,"x_min":-3,"x_max":772,"o":"m 175 0 q 36 82 82 0 q -3 249 -3 149 q 29 394 -3 343 q 140 492 56 435 l 247 564 q 385 626 340 626 q 471 579 439 626 q 511 458 490 550 q 529 331 529 374 q 468 179 529 250 q 340 65 449 157 q 261 20 311 40 q 175 0 211 0 m 433 306 q 401 438 433 375 q 299 511 361 511 q 182 446 231 511 q 136 317 136 386 q 171 188 136 242 q 282 125 211 125 q 393 183 349 125 q 433 306 433 236 m 429 789 q 393 801 403 789 q 392 807 392 804 q 404 833 392 824 q 518 915 446 860 q 603 1019 560 968 q 719 1081 656 1081 q 772 1040 772 1081 q 681 915 772 990 q 554 825 658 896 q 429 789 501 789 z "},"":{"ha":593,"x_min":-3,"x_max":551,"o":"m 175 0 q 36 82 82 0 q -3 249 -3 149 q 29 394 -3 343 q 140 492 56 435 l 247 564 q 385 626 340 626 q 471 579 439 626 q 511 458 490 550 q 529 331 529 374 q 468 179 529 250 q 340 65 449 157 q 261 20 311 40 q 175 0 211 0 m 433 306 q 401 438 433 375 q 299 511 361 511 q 182 446 231 511 q 136 317 136 386 q 171 188 136 242 q 282 125 211 125 q 393 183 349 125 q 433 306 433 236 m 514 868 q 551 881 540 868 q 551 886 551 883 q 460 996 551 901 q 383 1072 433 1021 q 333 1135 358 1103 q 271 1174 299 1174 q 210 1160 242 1174 q 171 1119 171 1144 q 263 994 171 1069 q 389 904 286 975 q 514 868 442 868 z "},"":{"ha":593,"x_min":-3,"x_max":626,"o":"m 175 0 q 36 82 82 0 q -3 249 -3 149 q 29 394 -3 343 q 140 492 56 435 l 247 564 q 385 626 340 626 q 471 579 439 626 q 511 458 490 550 q 529 331 529 374 q 468 179 529 250 q 340 65 449 157 q 261 20 311 40 q 175 0 211 0 m 433 306 q 401 438 433 375 q 299 511 361 511 q 182 446 231 511 q 136 317 136 386 q 171 188 136 242 q 282 125 211 125 q 393 183 349 125 q 433 306 433 236 m 179 771 q 150 783 157 771 q 149 789 149 786 q 160 815 149 806 q 247 897 190 842 q 290 967 261 914 q 338 1033 318 1014 q 410 1069 357 1069 q 457 1031 432 1069 q 496 968 476 999 l 556 892 q 626 782 626 797 q 626 776 626 779 q 597 764 618 764 q 501 800 542 764 q 369 926 456 839 q 260 824 347 901 q 179 771 200 771 z "},"":{"ha":503,"x_min":0,"x_max":482,"o":"m 482 800 q 460 726 482 764 q 401 682 435 682 q 351 715 369 682 q 336 776 336 743 q 358 850 336 814 q 418 893 383 893 q 465 863 449 893 q 482 800 482 833 m 269 803 q 246 725 269 765 q 183 681 218 681 q 129 717 150 681 q 111 785 111 749 q 137 863 111 821 q 197 904 163 904 q 251 872 232 904 q 269 803 269 839 m 475 210 q 396 96 475 157 q 275 19 390 93 q 179 -1 242 -1 q 0 222 0 -1 q 39 364 0 304 q 161 435 83 435 q 357 368 251 435 q 475 210 475 294 m 215 332 q 135 251 135 332 q 181 147 135 194 q 282 99 226 99 q 344 124 321 99 q 368 189 368 150 q 321 290 368 247 q 215 332 274 332 z "},"":{"ha":593,"x_min":-3,"x_max":651,"o":"m 175 0 q 36 82 82 0 q -3 249 -3 149 q 29 394 -3 343 q 140 492 56 435 l 247 564 q 385 626 340 626 q 471 579 439 626 q 511 458 490 550 q 529 331 529 374 q 468 179 529 250 q 340 65 449 157 q 261 20 311 40 q 175 0 211 0 m 433 306 q 401 438 433 375 q 299 511 361 511 q 182 446 231 511 q 136 317 136 386 q 171 188 136 242 q 282 125 211 125 q 393 183 349 125 q 433 306 433 236 m 606 960 q 554 857 565 874 q 469 808 514 799 q 358 904 418 817 q 274 992 299 992 q 205 925 251 992 q 113 856 158 858 q 88 865 88 853 q 131 929 88 882 q 196 1001 164 965 q 250 1076 222 1039 q 315 1113 278 1113 q 369 1094 347 1113 q 393 1067 371 1093 q 451 975 403 1054 q 506 932 479 929 q 561 1029 533 935 q 622 1126 589 1124 q 651 1086 651 1129 q 606 960 651 1053 z "},"":{"ha":728,"x_min":8,"x_max":861,"o":"m 861 85 q 851 72 861 81 q 839 63 840 64 q 651 1 790 1 q 536 32 582 1 q 478 88 515 44 q 429 118 451 118 q 371 81 408 118 q 293 10 317 26 q 176 -28 239 -28 q 135 -24 153 -28 q 71 -10 103 -17 q 32 50 51 0 q 8 150 8 114 q 31 375 8 294 q 68 511 63 496 q 156 626 110 626 q 169 604 169 626 q 145 506 169 583 q 121 381 121 428 q 139 222 121 361 q 186 151 144 176 q 269 128 222 128 q 414 203 354 128 q 479 360 464 267 q 567 528 506 528 q 593 496 585 528 q 574 319 574 349 q 594 213 574 293 q 633 153 614 182 q 689 115 663 115 q 814 126 689 115 q 861 85 861 110 m 350 758 q 314 771 324 758 q 313 776 313 774 q 325 803 313 793 q 439 885 367 829 q 524 989 481 938 q 640 1050 576 1050 q 693 1010 693 1050 q 601 885 693 960 q 475 794 579 865 q 350 758 422 758 z "},"":{"ha":728,"x_min":8,"x_max":861,"o":"m 861 85 q 851 72 861 81 q 839 63 840 64 q 651 1 790 1 q 536 32 582 1 q 478 88 515 44 q 429 118 451 118 q 371 81 408 118 q 293 10 317 26 q 176 -28 239 -28 q 135 -24 153 -28 q 71 -10 103 -17 q 32 50 51 0 q 8 150 8 114 q 31 375 8 294 q 68 511 63 496 q 156 626 110 626 q 169 604 169 626 q 145 506 169 583 q 121 381 121 428 q 139 222 121 361 q 186 151 144 176 q 269 128 222 128 q 414 203 354 128 q 479 360 464 267 q 567 528 506 528 q 593 496 585 528 q 574 319 574 349 q 594 213 574 293 q 633 153 614 182 q 689 115 663 115 q 814 126 689 115 q 861 85 861 110 m 524 858 q 561 871 550 858 q 561 876 561 874 q 469 986 561 892 q 393 1063 443 1011 q 343 1125 368 1093 q 281 1164 308 1164 q 219 1150 251 1164 q 181 1110 181 1135 q 272 985 181 1060 q 399 894 296 965 q 524 858 451 858 z "},"":{"ha":728,"x_min":8,"x_max":861,"o":"m 861 85 q 851 72 861 81 q 839 63 840 64 q 651 1 790 1 q 536 32 582 1 q 478 88 515 44 q 429 118 451 118 q 371 81 408 118 q 293 10 317 26 q 176 -28 239 -28 q 135 -24 153 -28 q 71 -10 103 -17 q 32 50 51 0 q 8 150 8 114 q 31 375 8 294 q 68 511 63 496 q 156 626 110 626 q 169 604 169 626 q 145 506 169 583 q 121 381 121 428 q 139 222 121 361 q 186 151 144 176 q 269 128 222 128 q 414 203 354 128 q 479 360 464 267 q 567 528 506 528 q 593 496 585 528 q 574 319 574 349 q 594 213 574 293 q 633 153 614 182 q 689 115 663 115 q 814 126 689 115 q 861 85 861 110 m 181 790 q 151 803 158 790 q 150 808 150 806 q 161 835 150 825 q 249 917 192 861 q 292 986 263 933 q 339 1053 319 1033 q 411 1089 358 1089 q 458 1050 433 1089 q 497 988 478 1018 l 557 911 q 628 801 628 817 q 628 796 628 799 q 599 783 619 783 q 503 819 543 783 q 371 946 457 858 q 261 843 349 921 q 181 790 201 790 z "},"":{"ha":660,"x_min":-1,"x_max":765,"o":"m 461 740 q 375 858 375 735 q 254 782 294 785 q 208 860 208 778 q 213 900 208 882 q 246 983 221 942 q 313 1039 279 1036 q 331 1036 321 1040 q 404 981 379 979 q 444 996 418 982 q 485 1011 471 1010 q 517 979 515 1014 l 519 822 q 517 775 521 793 q 461 740 511 744 m 765 100 q 690 44 765 65 q 588 29 635 29 q 469 88 522 29 q 383 146 417 146 q 315 108 357 146 q 233 38 254 51 q 110 0 175 0 q -1 153 -1 0 q 31 358 -1 199 q 72 440 38 392 q 135 488 106 488 l 140 488 q 150 463 150 481 q 147 442 150 454 q 118 246 118 290 q 150 160 118 200 q 228 115 183 115 q 263 121 247 115 q 379 221 343 151 q 419 353 396 251 q 474 472 439 436 q 521 503 503 503 q 539 488 532 503 q 546 460 546 472 l 544 285 q 601 188 544 224 q 708 144 624 175 q 765 100 765 124 z "},"":{"ha":1081,"x_min":193,"x_max":888,"o":"m 888 0 l 193 0 l 193 868 l 888 868 l 888 0 m 865 22 l 865 847 l 214 847 l 214 22 l 865 22 z "},"":{"ha":565,"x_min":81,"x_max":499,"o":"m 229 646 q 81 850 81 646 q 110 976 81 936 q 214 1054 133 1007 l 258 1079 q 383 1136 357 1136 q 461 1093 433 1136 q 499 906 499 1038 q 468 788 499 829 q 379 704 454 768 q 307 664 351 682 q 229 646 263 646 m 411 882 q 306 1032 411 1032 q 225 993 246 1032 q 210 896 210 965 q 326 758 210 758 q 400 792 383 758 q 411 882 411 813 z "},"":{"ha":656,"x_min":24,"x_max":610,"o":"m 229 244 l 238 286 q 282 667 274 499 q 163 549 213 654 q 118 379 118 457 q 229 244 118 274 m 240 -32 q 222 -10 229 -29 l 200 3 q 207 119 193 33 q 24 267 24 126 q 32 361 24 329 q 92 540 68 497 q 207 686 111 576 q 285 750 236 719 l 289 885 q 319 918 289 897 q 365 936 350 939 q 387 915 381 933 q 392 883 393 897 q 382 790 388 851 q 393 790 388 790 q 478 758 442 790 q 515 676 515 725 q 497 603 515 646 q 449 554 475 554 q 410 578 429 554 q 374 626 392 601 q 343 429 369 551 q 304 233 311 282 q 368 232 329 232 q 519 247 426 232 q 569 250 536 250 q 607 243 596 250 q 610 235 610 239 q 538 169 610 192 q 451 153 494 161 q 300 125 435 150 q 306 36 306 64 q 281 -39 306 -43 l 240 -32 z "},"":{"ha":857,"x_min":35,"x_max":808,"o":"m 514 421 q 488 397 514 410 q 450 382 463 383 l 244 378 l 240 369 q 206 244 206 290 q 207 231 206 236 q 235 222 217 222 q 332 240 260 222 q 421 258 404 258 q 501 226 476 258 q 539 165 521 196 q 625 133 565 133 q 722 157 664 133 q 789 181 781 181 q 806 149 808 181 l 808 142 q 726 106 779 126 q 642 71 661 79 q 489 24 542 24 q 403 60 426 24 q 369 126 386 93 q 276 163 344 163 q 153 108 219 163 q 64 54 88 54 q 35 94 35 54 q 93 219 35 118 q 161 343 121 263 q 175 378 165 356 q 133 383 167 378 q 93 388 100 388 q 67 393 71 388 l 67 396 q 80 434 65 408 q 104 467 94 460 q 225 489 140 494 q 238 531 226 493 q 161 539 178 535 q 114 583 114 550 q 236 650 114 644 q 229 701 232 676 q 229 764 225 743 q 306 910 253 874 l 413 981 q 551 1024 468 1018 q 699 969 629 1029 q 769 832 769 910 q 711 758 769 763 q 645 807 674 756 q 589 907 617 858 q 497 956 551 960 q 415 918 453 953 q 350 749 350 856 q 358 646 350 718 q 576 599 576 631 q 556 560 576 571 q 440 546 526 546 q 318 550 392 546 q 290 485 310 529 q 426 465 364 479 q 514 421 514 446 z "},"":{"ha":796,"x_min":-82,"x_max":708,"o":"m 557 233 q 604 147 557 211 q 651 42 651 83 q 560 -115 651 -29 q 417 -200 490 -181 q 250 -214 364 -214 q 218 -214 221 -214 q 58 -192 81 -196 q -82 -107 -82 -161 q -6 -61 -82 -61 q 110 -83 29 -61 q 431 -112 219 -112 q 488 -89 461 -112 q 514 -36 514 -65 q 461 76 514 28 q 353 147 440 94 q 241 210 315 168 q 167 342 167 253 q 204 461 167 411 q 275 528 219 481 q 313 586 313 560 q 281 638 313 611 q 219 690 226 682 q 188 779 188 728 q 328 963 188 888 q 403 1006 365 983 q 482 1031 450 1031 q 556 1002 522 1031 q 589 935 589 974 q 553 903 589 903 q 482 919 531 903 q 414 936 433 936 q 322 850 322 936 q 361 765 322 794 l 496 663 q 593 611 525 640 q 675 561 653 586 q 708 450 708 524 q 669 347 708 389 q 596 292 660 338 q 557 233 557 263 m 589 396 q 533 488 589 443 q 426 532 476 532 q 339 497 378 532 q 300 413 300 461 q 349 344 300 368 q 436 326 386 326 q 589 396 589 326 z "},"":{"ha":529,"x_min":67,"x_max":431,"o":"m 431 611 q 373 481 431 535 q 225 426 315 426 q 115 460 164 426 q 67 544 67 493 q 122 679 67 622 q 269 736 178 736 q 383 701 336 736 q 431 611 431 667 z "},"":{"ha":726,"x_min":74,"x_max":714,"o":"m 714 883 l 624 883 l 624 -300 l 575 -300 l 575 883 l 449 883 l 449 -300 l 399 -300 l 399 408 q 169 461 244 415 q 74 665 74 522 q 167 860 74 792 q 379 919 249 919 l 714 919 l 714 883 z "},"":{"ha":685,"x_min":-124,"x_max":658,"o":"m 658 161 q 593 32 658 76 q 447 -6 536 -6 q 347 24 396 -6 q 279 78 324 39 q 232 108 246 108 q 200 85 207 108 q 160 -51 189 39 q 115 -157 144 -87 q 40 -343 47 -331 q -94 -482 -28 -482 q -124 -442 -124 -482 q -110 -372 -124 -412 q -87 -306 -99 -339 q 47 139 -46 -157 q 108 242 60 174 q 158 317 157 310 q 204 507 204 474 q 150 601 204 560 q 46 679 51 674 q -10 835 -10 738 q 38 943 -10 901 q 144 1001 71 974 q 201 1014 178 1014 q 324 844 324 1014 q 319 784 324 824 q 314 725 314 744 q 369 614 314 657 l 482 525 q 581 388 519 496 q 658 161 658 251 m 246 794 q 224 874 246 829 q 165 926 197 926 q 135 871 135 926 q 160 792 135 836 q 217 742 186 742 q 246 794 246 742 m 506 158 q 469 267 506 204 q 404 364 438 315 q 350 440 388 392 q 308 461 331 461 q 251 407 271 461 q 235 324 235 367 q 238 285 235 301 q 301 188 247 229 q 457 110 404 110 q 506 158 506 110 z "},"":{"ha":1081,"x_min":193,"x_max":888,"o":"m 888 0 l 193 0 l 193 868 l 888 868 l 888 0 m 865 22 l 865 847 l 214 847 l 214 22 l 865 22 z "},"":{"ha":1081,"x_min":193,"x_max":888,"o":"m 888 0 l 193 0 l 193 868 l 888 868 l 888 0 m 865 22 l 865 847 l 214 847 l 214 22 l 865 22 z "},"":{"ha":1081,"x_min":193,"x_max":888,"o":"m 888 0 l 193 0 l 193 868 l 888 868 l 888 0 m 865 22 l 865 847 l 214 847 l 214 22 l 865 22 z "},"":{"ha":672,"x_min":182,"x_max":563,"o":"m 219 926 q 183 939 193 926 q 182 944 182 942 q 194 971 182 961 q 308 1053 236 997 q 393 1157 350 1106 q 510 1218 446 1218 q 563 1178 563 1218 q 471 1053 563 1128 q 344 963 449 1033 q 219 926 292 926 z "},"":{"ha":503,"x_min":111,"x_max":482,"o":"m 482 800 q 460 726 482 764 q 401 682 435 682 q 351 715 369 682 q 336 776 336 743 q 358 850 336 814 q 418 893 383 893 q 465 863 449 893 q 482 800 482 833 m 269 803 q 246 725 269 765 q 183 681 218 681 q 129 717 150 681 q 111 785 111 749 q 137 863 111 821 q 197 904 163 904 q 251 872 232 904 q 269 803 269 839 z "},"":{"ha":913,"x_min":0,"x_max":910,"o":"m 910 394 l 910 392 q 847 349 910 386 q 783 272 783 313 q 810 188 783 258 q 847 93 829 140 q 824 27 846 54 q 763 0 801 0 q 719 12 740 0 q 661 206 699 24 q 574 276 646 276 q 493 261 542 276 q 414 239 425 242 q 283 218 349 229 q 183 144 211 200 q 139 60 150 76 q 68 7 104 7 q 50 32 50 7 q 101 123 50 61 q 151 207 151 185 q 113 253 151 231 q 39 292 40 292 q 0 363 0 321 q 29 419 0 392 q 88 447 58 447 q 159 396 118 447 q 226 344 200 344 q 319 436 267 344 q 433 636 358 503 q 478 735 447 669 q 535 824 497 764 q 597 931 565 876 q 692 996 643 996 q 731 979 714 996 q 747 940 747 963 q 742 858 747 913 q 736 778 736 804 q 744 713 736 756 q 751 649 751 669 q 747 494 751 649 q 779 425 746 444 q 849 409 800 414 q 910 394 897 404 m 613 399 q 601 544 613 433 q 578 683 588 669 q 571 686 575 686 q 519 632 554 686 q 476 558 497 594 q 425 478 460 531 q 382 421 403 449 q 356 356 356 385 q 446 311 356 311 q 613 399 613 311 z "},"":{"ha":1081,"x_min":193,"x_max":888,"o":"m 888 0 l 193 0 l 193 868 l 888 868 l 888 0 m 865 22 l 865 847 l 214 847 l 214 22 l 865 22 z "},"":{"ha":1081,"x_min":193,"x_max":888,"o":"m 888 0 l 193 0 l 193 868 l 888 868 l 888 0 m 865 22 l 865 847 l 214 847 l 214 22 l 865 22 z "},"":{"ha":915,"x_min":22,"x_max":875,"o":"m 843 201 q 786 182 843 185 l 703 178 q 683 -3 696 118 q 638 -178 674 -101 q 507 -282 588 -282 q 408 -231 476 -282 l 332 -172 q 206 -29 319 -162 q 168 97 168 15 q 176 124 168 124 q 189 114 185 124 q 263 -28 243 -6 q 396 -139 282 -51 q 506 -194 468 -194 q 538 -181 521 -194 q 557 -153 556 -168 l 575 57 q 588 172 579 96 l 461 165 q 407 164 428 164 q 375 167 379 164 l 375 169 q 438 206 374 181 q 594 242 510 235 l 594 250 q 594 325 594 258 q 568 324 578 324 q 396 360 396 324 q 482 401 396 389 q 590 408 535 410 l 599 408 q 611 526 600 425 q 605 558 613 542 q 582 575 597 575 q 483 510 567 575 q 379 465 453 486 q 267 446 311 446 q 171 529 171 446 q 192 665 171 550 q 214 782 210 764 q 236 851 215 790 q 250 921 250 894 q 215 961 250 961 q 203 960 210 961 q 122 904 163 932 q 32 864 57 863 l 28 864 q 22 874 22 867 q 35 892 22 878 q 121 951 69 931 q 222 993 172 972 q 281 1031 224 994 q 339 1056 319 1056 q 369 1019 369 1056 q 350 940 369 994 q 324 864 326 876 q 308 751 319 826 q 292 675 308 749 q 282 596 282 628 q 369 506 282 506 q 460 535 410 506 q 539 590 463 538 q 579 621 540 592 q 667 785 628 658 q 763 931 703 901 q 792 939 779 939 q 801 938 792 939 q 814 911 814 931 q 788 811 814 888 q 754 701 758 726 q 728 550 744 651 q 721 428 725 508 l 719 401 q 875 369 875 388 q 715 333 875 349 q 708 240 711 278 q 843 201 843 226 z "},"":{"ha":728,"x_min":-57,"x_max":861,"o":"m 135 -24 q 104 -269 118 -153 q 61 -404 74 -374 q -17 -501 24 -493 q -47 -482 -35 -504 q -57 -443 -57 -464 q -32 -160 -57 -354 q 7 121 -18 -60 q 31 375 8 293 q 68 511 63 496 q 156 626 110 626 q 169 604 169 626 q 145 506 169 583 q 121 381 121 428 q 139 222 121 361 q 186 151 144 176 q 269 128 222 128 q 414 203 354 128 q 479 360 464 267 q 567 528 506 528 q 593 496 585 528 q 574 319 574 349 q 594 213 574 293 q 633 153 614 182 q 689 115 663 115 q 814 126 689 115 q 861 85 861 110 q 851 72 861 81 q 839 63 840 64 q 651 1 790 1 q 536 32 582 1 q 478 88 515 44 q 429 118 451 118 q 371 81 408 118 q 293 10 317 26 q 176 -28 239 -28 q 135 -24 153 -28 z "},"":{"ha":1081,"x_min":193,"x_max":888,"o":"m 888 0 l 193 0 l 193 868 l 888 868 l 888 0 m 865 22 l 865 847 l 214 847 l 214 22 l 865 22 z "},"":{"ha":1081,"x_min":193,"x_max":888,"o":"m 888 0 l 193 0 l 193 868 l 888 868 l 888 0 m 865 22 l 865 847 l 214 847 l 214 22 l 865 22 z "},"":{"ha":960,"x_min":0,"x_max":1089,"o":"m 349 363 q 315 449 349 406 q 240 492 281 492 q 175 465 208 492 q 161 443 174 464 q 111 226 111 351 q 168 146 111 146 q 207 157 185 146 q 349 363 349 225 m 1089 203 q 890 114 1089 165 q 789 74 871 108 q 685 47 725 47 q 603 66 660 47 q 521 85 546 85 q 458 67 507 85 q 392 50 408 50 q 374 63 374 50 q 349 101 349 60 q 368 225 349 118 q 360 226 364 226 q 272 153 331 226 q 207 63 239 108 q 151 22 193 44 q 86 0 110 0 q 0 111 0 0 q 71 404 0 235 q 108 494 107 493 q 151 569 131 542 q 281 639 206 639 q 323 615 286 639 q 375 592 360 592 q 422 629 386 592 q 469 667 458 667 q 485 642 485 667 q 478 595 485 628 q 472 551 472 563 q 475 540 472 543 q 736 711 618 711 q 833 678 789 711 q 881 589 881 640 q 792 467 881 532 q 693 393 758 438 q 550 342 693 393 q 500 289 500 324 q 578 192 500 224 q 710 168 636 168 q 892 183 801 168 q 975 203 907 185 q 1057 217 1026 217 q 1089 203 1089 217 m 760 536 q 728 592 760 571 q 658 613 696 613 q 572 581 613 613 q 542 542 558 569 q 525 500 525 515 q 535 449 525 472 q 571 418 549 418 q 603 424 583 418 q 635 435 631 433 q 714 468 681 446 q 760 536 760 499 z "},"":{"ha":593,"x_min":-3,"x_max":588,"o":"m 474 574 q 512 455 494 533 q 529 331 529 376 q 468 179 529 249 q 340 65 450 158 q 261 20 310 40 q 175 0 213 0 q 92 -140 128 -140 q 51 -140 49 -140 q 32 -119 31 -137 l 10 -108 q 74 35 14 -72 q 15 133 38 65 q -3 249 -3 193 q 29 393 -3 343 q 140 492 56 435 l 247 564 q 389 626 342 628 q 449 772 408 675 q 503 818 456 788 q 569 849 551 849 q 588 828 588 849 q 558 743 588 801 q 515 661 536 703 q 483 588 515 661 q 474 574 481 583 m 433 306 q 397 443 433 371 q 225 138 336 343 q 282 125 250 125 q 393 183 349 125 q 433 306 433 236 m 331 507 q 299 511 315 511 q 279 510 289 511 q 220 476 261 507 q 168 428 179 444 q 136 314 136 379 q 167 197 136 247 q 331 507 251 338 z "},"":{"ha":650,"x_min":61,"x_max":636,"o":"m 61 171 q 88 274 61 207 q 139 368 114 335 q 239 476 169 407 q 338 582 308 544 q 349 624 349 596 q 234 663 349 647 q 119 706 119 679 q 185 764 119 742 q 283 782 235 782 q 390 764 343 782 q 456 692 456 739 q 451 665 456 678 q 210 381 444 649 q 171 275 171 338 q 257 138 171 163 q 336 113 297 125 q 417 97 386 97 q 501 149 460 97 q 576 201 543 201 q 619 183 603 201 q 636 140 636 165 q 544 42 636 86 q 458 -1 501 19 q 365 -25 408 -25 q 247 1 324 -25 q 119 56 150 35 q 61 171 61 97 m 265 925 q 293 994 265 965 q 363 1022 321 1022 q 415 1005 392 1022 q 439 960 439 988 q 412 888 439 918 q 342 858 385 858 q 288 876 310 858 q 265 925 265 894 z "},"":{"ha":432,"x_min":51,"x_max":315,"o":"m 235 764 q 253 751 246 764 q 260 726 261 739 q 240 560 253 671 q 233 414 239 511 q 211 225 233 414 q 186 89 199 126 q 106 -22 164 26 q 61 -44 78 -46 q 51 -19 51 -40 q 67 56 51 7 q 89 132 86 114 q 100 290 92 185 q 144 567 104 332 q 175 686 158 646 q 235 764 206 764 m 190 1028 q 215 1095 190 1058 q 269 1132 240 1132 q 301 1119 286 1132 q 315 1090 315 1106 q 288 1031 315 1060 q 232 1000 261 1003 q 190 1028 190 1014 z "},"":{"ha":596,"x_min":81,"x_max":560,"o":"m 556 475 q 460 228 524 228 q 437 241 446 228 q 429 267 428 254 l 446 385 l 101 404 q 82 415 85 406 q 86 446 81 422 q 192 535 108 535 q 333 535 333 535 q 464 528 399 532 q 556 475 560 517 z "},"":{"ha":1081,"x_min":193,"x_max":888,"o":"m 888 0 l 193 0 l 193 868 l 888 868 l 888 0 m 865 22 l 865 847 l 214 847 l 214 22 l 865 22 z "},"":{"ha":806,"x_min":11,"x_max":746,"o":"m 710 610 q 746 596 746 610 q 679 549 746 578 q 557 492 572 500 q 492 418 492 454 q 525 365 492 393 q 578 325 551 344 q 701 213 701 213 q 700 206 701 213 q 648 168 683 183 q 585 153 613 153 q 521 194 565 153 q 458 247 494 219 q 401 306 439 261 q 357 353 379 329 q 324 406 324 389 q 431 497 324 450 q 560 554 478 519 l 603 571 q 710 610 707 610 m 376 618 q 410 610 386 618 q 433 596 433 603 q 369 551 433 578 q 250 501 264 508 q 186 431 186 467 q 265 325 186 397 q 389 213 389 213 q 388 206 389 213 q 285 163 354 163 q 237 176 268 163 q 193 200 206 189 q 128 256 171 221 q 71 317 108 272 q 11 406 11 388 q 150 501 11 442 q 247 554 204 525 l 294 588 q 335 605 301 592 q 376 618 369 618 z "},"":{"ha":857,"x_min":81,"x_max":801,"o":"m 529 186 q 485 169 517 183 q 438 154 454 154 q 418 165 418 154 q 423 182 418 171 q 429 197 428 193 q 533 258 436 222 q 625 339 625 292 q 617 371 625 354 q 556 435 610 382 q 476 517 496 492 q 443 544 472 522 q 414 574 414 567 q 456 610 414 594 q 514 622 489 622 q 546 628 531 622 q 563 635 561 635 q 599 599 574 635 q 713 479 607 588 q 800 364 801 388 q 700 285 799 335 q 564 214 576 224 l 529 186 m 310 242 q 208 197 296 240 q 103 154 119 154 q 83 165 83 154 q 94 197 83 183 q 208 253 106 210 q 292 338 292 289 q 282 371 292 354 q 221 435 276 382 q 142 517 161 492 q 107 546 139 521 q 81 574 81 567 q 124 610 81 593 q 185 622 160 622 q 265 599 238 622 q 374 479 288 578 q 465 364 465 374 q 424 314 465 333 q 344 271 356 281 l 310 242 z "},"":{"ha":1081,"x_min":193,"x_max":888,"o":"m 888 0 l 193 0 l 193 868 l 888 868 l 888 0 m 865 22 l 865 847 l 214 847 l 214 22 l 865 22 z "},"":{"ha":913,"x_min":0,"x_max":910,"o":"m 910 394 l 910 392 q 847 349 910 386 q 783 272 783 313 q 810 188 783 258 q 847 93 829 140 q 824 27 846 54 q 763 0 801 0 q 719 12 740 0 q 661 206 699 24 q 574 276 646 276 q 493 261 542 276 q 414 239 425 242 q 283 218 349 229 q 183 144 211 200 q 139 60 150 76 q 68 7 104 7 q 50 32 50 7 q 101 123 50 61 q 151 207 151 185 q 113 253 151 231 q 39 292 40 292 q 0 363 0 321 q 29 419 0 392 q 88 447 58 447 q 159 396 118 447 q 226 344 200 344 q 319 436 267 344 q 433 636 358 503 q 478 735 447 669 q 535 824 497 764 q 597 931 565 876 q 692 996 643 996 q 731 979 714 996 q 747 940 747 963 q 742 858 747 913 q 736 778 736 804 q 744 713 736 756 q 751 649 751 669 q 747 494 751 649 q 779 425 746 444 q 849 409 800 414 q 910 394 897 404 m 613 399 q 601 544 613 433 q 578 683 588 669 q 571 686 575 686 q 519 632 554 686 q 476 558 497 594 q 425 478 460 531 q 382 421 403 449 q 356 356 356 385 q 446 311 356 311 q 613 399 613 311 m 686 1101 q 724 1114 713 1101 q 724 1119 724 1117 q 632 1229 724 1135 q 556 1306 606 1254 q 506 1368 531 1336 q 443 1407 471 1407 q 382 1393 414 1407 q 343 1353 343 1378 q 435 1228 343 1303 q 561 1138 458 1208 q 686 1101 614 1101 z "},"":{"ha":913,"x_min":0,"x_max":1017,"o":"m 910 394 l 910 392 q 847 349 910 386 q 783 272 783 313 q 810 188 783 258 q 847 93 829 140 q 824 27 846 54 q 763 0 801 0 q 719 12 740 0 q 661 206 699 24 q 574 276 646 276 q 493 261 542 276 q 414 239 425 242 q 283 218 349 229 q 183 144 211 200 q 139 60 150 76 q 68 7 104 7 q 50 32 50 7 q 101 123 50 61 q 151 207 151 185 q 113 253 151 231 q 39 292 40 292 q 0 363 0 321 q 29 419 0 392 q 88 447 58 447 q 159 396 118 447 q 226 344 200 344 q 319 436 267 344 q 433 636 358 503 q 478 735 447 669 q 535 824 497 764 q 597 931 565 876 q 692 996 643 996 q 731 979 714 996 q 747 940 747 963 q 742 858 747 913 q 736 778 736 804 q 744 713 736 756 q 751 649 751 669 q 747 494 751 649 q 779 425 746 444 q 849 409 800 414 q 910 394 897 404 m 613 399 q 601 544 613 433 q 578 683 588 669 q 571 686 575 686 q 519 632 554 686 q 476 558 497 594 q 425 478 460 531 q 382 421 403 449 q 356 356 356 385 q 446 311 356 311 q 613 399 613 311 m 971 1228 q 919 1125 931 1142 q 835 1076 879 1067 q 724 1172 783 1085 q 639 1260 664 1260 q 570 1193 617 1260 q 478 1124 524 1126 q 453 1133 453 1121 q 496 1197 453 1150 q 561 1269 529 1233 q 615 1344 588 1307 q 681 1381 643 1381 q 735 1363 713 1381 q 758 1335 736 1361 q 817 1243 768 1322 q 871 1200 844 1197 q 926 1297 899 1203 q 988 1394 954 1392 q 1017 1354 1017 1397 q 971 1228 1017 1321 z "},"":{"ha":928,"x_min":-3,"x_max":911,"o":"m 911 464 q 890 342 911 399 q 643 99 840 206 q 301 -1 460 -1 q 68 81 142 -1 q -3 319 -3 158 q 32 564 -3 417 q 113 767 64 697 q 292 878 176 856 q 331 882 311 882 q 392 877 354 882 q 454 872 429 872 l 483 872 q 549 872 549 872 q 324 828 449 856 q 176 624 190 707 q 151 378 151 476 q 215 157 151 229 q 428 81 282 81 q 599 118 506 81 q 742 215 697 158 q 810 306 776 261 q 851 460 851 363 q 735 771 851 625 q 653 822 728 779 q 578 869 578 865 q 590 874 582 874 q 654 864 629 874 q 703 838 664 860 q 750 810 742 817 q 911 464 911 663 m 865 1163 q 814 1060 825 1076 q 729 1011 774 1001 q 618 1107 678 1019 q 533 1194 558 1194 q 465 1128 511 1194 q 372 1058 418 1061 q 347 1068 347 1056 q 390 1132 347 1085 q 456 1204 424 1168 q 510 1278 482 1242 q 575 1315 538 1315 q 629 1297 607 1315 q 653 1269 631 1296 q 711 1178 663 1257 q 765 1135 739 1132 q 821 1232 793 1138 q 882 1329 849 1326 q 911 1289 911 1332 q 865 1163 911 1256 z "},"":{"ha":1081,"x_min":193,"x_max":888,"o":"m 888 0 l 193 0 l 193 868 l 888 868 l 888 0 m 865 22 l 865 847 l 214 847 l 214 22 l 865 22 z "},"":{"ha":1003,"x_min":-3,"x_max":1099,"o":"m 422 239 q 432 281 426 261 q 433 306 433 293 q 401 438 433 375 q 299 511 361 511 q 182 446 231 511 q 136 317 136 386 q 171 188 136 242 q 282 125 211 125 q 422 239 383 125 m 1099 108 q 1054 65 1099 88 q 992 43 1022 50 q 661 -14 757 -14 q 413 125 417 -14 q 340 65 389 106 q 261 20 311 40 q 175 0 211 0 q 36 82 82 0 q -3 249 -3 149 q 29 394 -3 343 q 140 492 56 435 l 247 564 q 385 626 340 626 q 471 579 439 626 q 514 443 493 546 q 621 558 556 497 q 782 626 697 626 q 879 593 835 626 q 926 504 926 556 q 838 382 926 447 q 739 308 804 353 q 596 257 739 308 q 546 204 546 239 q 624 107 546 139 q 756 83 682 83 q 938 99 836 83 q 1003 113 950 100 q 1067 122 1042 122 q 1099 108 1099 122 m 806 451 q 774 507 806 486 q 704 528 742 528 q 629 503 665 528 q 588 439 588 476 q 621 381 588 401 q 688 363 650 363 q 764 386 728 363 q 806 451 806 414 z "},"":{"ha":782,"x_min":63,"x_max":760,"o":"m 756 481 q 657 388 732 388 l 76 393 q 63 404 63 393 q 76 446 63 408 q 167 528 106 528 q 251 531 169 528 q 335 531 315 533 q 704 508 510 524 q 740 500 704 508 q 756 481 760 494 z "},"":{"ha":1144,"x_min":44,"x_max":1101,"o":"m 1101 465 q 989 399 1101 399 l 103 399 q 64 412 83 399 q 44 444 44 425 q 99 517 44 486 q 192 543 146 543 q 292 533 217 543 q 708 524 350 526 q 1060 517 1046 522 q 1101 465 1101 497 z "},"":{"ha":518,"x_min":92,"x_max":479,"o":"m 442 1092 q 445 1059 442 1081 q 449 1028 449 1038 q 419 956 449 983 q 347 929 390 929 q 315 1015 314 929 l 317 1040 q 351 1179 318 1101 q 443 1274 392 1274 q 469 1255 458 1274 q 479 1218 479 1236 q 460 1156 479 1199 q 442 1092 442 1114 m 224 1092 q 228 1053 224 1079 q 233 1015 233 1028 q 157 929 233 929 q 106 988 125 929 q 92 1075 92 1033 q 124 1197 92 1132 q 210 1275 161 1275 q 239 1255 229 1275 q 249 1214 249 1235 q 236 1153 249 1193 q 224 1092 224 1113 z "},"":{"ha":379,"x_min":-3,"x_max":368,"o":"m 368 1178 q 303 971 368 1076 q 249 921 272 921 q 213 1031 213 921 q 242 1171 213 1092 q 326 1269 276 1269 q 368 1178 368 1269 m 151 1100 q 131 965 151 1047 q 71 861 104 861 q 14 924 36 861 q -3 1017 -3 972 q 26 1133 -3 1069 q 106 1210 60 1210 q 151 1100 151 1210 z "},"":{"ha":379,"x_min":88,"x_max":286,"o":"m 286 1110 q 269 1039 286 1082 q 244 968 247 979 q 219 892 236 935 q 181 831 196 831 q 108 917 136 831 q 88 1040 88 983 q 111 1151 88 1101 q 163 1199 119 1169 q 226 1229 207 1229 q 274 1182 257 1229 q 286 1110 286 1149 z "},"":{"ha":379,"x_min":82,"x_max":299,"o":"m 235 1278 q 286 1218 268 1278 q 299 1129 299 1175 q 251 950 299 1017 q 194 913 238 932 q 125 893 150 893 q 85 990 82 893 l 85 1006 q 111 1082 86 1039 q 151 1154 151 1153 q 189 1224 163 1179 q 235 1278 222 1278 z "},"":{"ha":1081,"x_min":193,"x_max":888,"o":"m 888 0 l 193 0 l 193 868 l 888 868 l 888 0 m 865 22 l 865 847 l 214 847 l 214 22 l 865 22 z "},"":{"ha":629,"x_min":-112,"x_max":581,"o":"m 257 -646 q 149 -608 208 -646 q 60 -531 96 -575 q 32 -446 32 -496 q 43 -385 32 -419 q 72 -336 56 -344 q 104 -399 79 -336 q 140 -481 132 -469 q 300 -567 207 -567 q 408 -497 374 -567 q 444 -364 426 -461 q 457 -232 457 -294 q 436 -42 457 -196 q 422 50 426 33 q 376 118 406 118 q 307 74 363 118 q 225 29 251 29 q 132 131 132 29 q 150 242 132 175 q 190 351 168 310 q 235 463 235 436 q 168 525 235 525 q 75 510 128 525 q -10 471 18 493 q -108 394 -51 433 q -112 403 -112 397 q -108 419 -112 408 q -17 518 -85 479 q 110 576 -15 519 q 244 610 183 610 q 338 546 338 610 q 303 450 338 517 q 258 346 264 376 q 246 240 246 283 q 301 139 246 139 q 335 149 315 139 q 363 171 356 160 l 449 313 q 485 326 467 326 q 531 265 519 326 q 540 179 535 222 q 567 67 554 124 q 581 -46 581 3 q 571 -214 581 -142 q 542 -358 569 -225 q 433 -544 529 -419 q 257 -646 356 -646 m 554 951 q 532 864 554 901 q 457 821 506 821 q 428 843 447 821 q 419 864 425 846 q 410 882 413 882 q 367 836 393 882 q 286 944 286 863 q 304 1021 286 982 q 356 1069 325 1069 q 401 1031 375 1069 q 432 993 426 993 q 492 1035 433 993 q 506 1036 499 1036 q 554 951 554 1036 z "},"":{"ha":793,"x_min":22,"x_max":814,"o":"m 507 -282 q 408 -231 476 -282 l 332 -172 q 206 -29 319 -162 q 168 97 168 15 q 176 124 168 124 q 189 114 185 124 q 263 -28 243 -6 q 396 -139 282 -51 q 506 -194 468 -194 q 538 -181 521 -194 q 557 -153 556 -168 l 575 57 q 594 250 582 121 q 594 343 594 281 q 611 526 596 389 q 605 558 613 542 q 582 575 597 575 q 483 510 567 575 q 379 465 453 486 q 267 446 311 446 q 171 529 171 446 q 192 665 171 550 q 214 782 210 764 q 236 851 215 790 q 250 921 250 894 q 215 961 250 961 q 203 960 210 961 q 122 904 163 932 q 32 864 57 863 l 28 864 q 22 874 22 867 q 35 892 22 878 q 121 951 69 931 q 222 993 172 972 q 281 1031 224 994 q 339 1056 319 1056 q 369 1019 369 1056 q 350 940 369 994 q 324 864 326 876 q 308 751 319 826 q 292 675 308 749 q 282 596 282 628 q 369 506 282 506 q 460 535 410 506 q 539 590 463 538 q 579 621 540 592 q 667 785 628 658 q 763 931 703 901 q 792 939 779 939 q 801 938 792 939 q 814 911 814 931 q 788 811 814 888 q 754 701 758 726 q 728 550 744 651 q 721 428 725 508 q 706 211 717 356 q 683 -3 706 207 q 638 -178 674 -101 q 507 -282 588 -282 m 733 1224 q 710 1136 733 1172 q 636 1093 683 1093 q 607 1114 625 1093 q 597 1136 603 1118 q 588 1154 590 1154 q 546 1108 571 1154 q 465 1217 465 1133 q 482 1293 465 1253 q 535 1342 503 1342 q 578 1303 553 1342 q 610 1265 604 1265 q 671 1307 611 1265 q 683 1308 676 1308 q 733 1224 733 1308 z "},"":{"ha":954,"x_min":-1,"x_max":913,"o":"m 913 614 q 858 554 913 554 q 792 590 829 554 q 718 657 726 651 q 611 693 668 693 q 556 671 603 693 q 367 490 464 626 q 511 475 428 486 q 622 446 622 460 q 569 422 622 433 q 292 390 428 392 q 265 321 272 357 q 301 321 283 321 q 417 311 354 321 q 519 274 501 297 l 519 271 q 403 242 519 250 q 260 236 332 239 q 271 192 260 208 q 361 96 321 117 q 483 78 397 78 q 614 91 528 78 q 744 104 700 104 q 786 85 786 104 q 763 68 786 74 q 446 14 538 14 q 361 26 442 14 q 136 128 233 46 q 118 229 117 172 q 35 226 58 226 q -1 229 4 226 q 54 268 -1 242 q 126 296 99 288 q 186 394 136 332 q 58 435 58 406 q 150 475 58 457 q 265 490 219 489 q 447 660 310 557 q 571 740 525 718 q 711 775 639 775 q 842 729 779 775 q 913 614 913 679 z "},"":{"ha":501,"x_min":11,"x_max":433,"o":"m 376 618 q 410 610 386 618 q 433 596 433 603 q 369 551 433 578 q 250 501 264 508 q 186 431 186 467 q 265 325 186 397 q 389 213 389 213 q 388 206 389 213 q 285 163 354 163 q 237 176 268 163 q 193 200 206 189 q 128 256 171 221 q 71 317 108 272 q 11 406 11 388 q 150 501 11 442 q 247 554 204 525 l 294 588 q 335 605 301 592 q 376 618 369 618 z "},"":{"ha":501,"x_min":81,"x_max":465,"o":"m 196 186 q 151 169 182 183 q 103 154 119 154 q 83 165 83 154 q 89 182 83 171 q 96 197 94 193 q 199 258 101 222 q 292 338 292 292 q 282 371 292 354 q 221 435 276 382 q 142 517 161 492 q 107 546 139 521 q 81 574 81 567 q 124 610 81 593 q 185 622 160 622 q 265 599 238 622 q 374 479 288 578 q 465 364 465 374 q 367 285 465 333 q 231 214 242 224 l 196 186 z "},"":{"ha":1081,"x_min":193,"x_max":888,"o":"m 888 0 l 193 0 l 193 868 l 888 868 l 888 0 m 865 22 l 865 847 l 214 847 l 214 22 l 865 22 z "},"":{"ha":439,"x_min":169,"x_max":349,"o":"m 349 614 q 320 538 349 569 q 247 506 292 506 q 194 525 218 506 q 169 575 169 544 q 197 653 169 619 q 269 688 225 688 q 326 667 303 688 q 349 614 349 646 z "},"":{"ha":1081,"x_min":193,"x_max":888,"o":"m 888 0 l 193 0 l 193 868 l 888 868 l 888 0 m 865 22 l 865 847 l 214 847 l 214 22 l 865 22 z "},"":{"ha":532,"x_min":93,"x_max":478,"o":"m 478 160 q 413 -47 478 58 q 358 -97 381 -97 q 332 -72 343 -97 q 325 -35 325 -53 q 333 13 325 -19 q 340 63 340 46 q 337 106 340 76 q 333 150 333 135 q 362 224 333 196 q 436 251 390 251 q 478 160 478 251 m 247 142 q 226 7 247 90 q 167 -97 200 -97 q 124 -64 140 -97 q 111 -8 111 -39 q 115 57 111 14 q 119 121 119 100 q 93 204 119 158 q 140 238 106 224 q 201 251 175 251 q 247 142 247 251 z "},"":{"ha":1392,"x_min":32,"x_max":1325,"o":"m 893 240 q 825 75 893 169 q 688 -26 753 -26 q 599 29 632 -26 q 571 135 571 76 q 635 297 571 226 q 789 367 699 367 q 868 328 840 367 q 893 240 893 294 m 700 903 q 706 892 706 900 q 667 810 706 872 q 614 725 640 767 q 557 597 596 682 q 492 465 535 554 q 435 307 474 422 q 385 132 385 164 q 399 89 385 117 q 414 49 414 61 q 372 -10 414 18 q 300 -39 331 -39 q 256 7 256 -39 q 297 138 256 21 q 453 519 374 350 q 518 651 475 563 q 575 778 547 715 q 660 883 608 842 q 697 903 685 903 l 700 903 m 822 158 q 799 227 822 196 q 742 258 776 258 q 686 196 686 258 q 708 129 686 158 q 767 96 732 96 q 807 115 792 96 q 822 158 822 133 m 1069 -36 q 976 11 1013 -36 q 944 113 944 54 q 1023 282 944 213 q 1203 351 1101 351 q 1325 232 1325 351 q 1235 60 1325 156 q 1069 -36 1146 -36 m 1229 172 q 1203 225 1229 203 q 1147 247 1178 247 q 1082 164 1082 247 q 1101 114 1082 135 q 1149 93 1121 93 q 1229 172 1229 93 m 400 829 q 319 660 400 754 q 164 561 236 561 q 65 614 104 561 q 32 724 32 661 q 108 890 32 819 q 281 957 183 957 q 369 922 338 957 q 400 829 400 886 m 318 747 q 292 817 318 786 q 226 849 265 849 q 181 830 199 849 q 164 783 164 811 q 191 715 164 746 q 256 683 218 683 q 300 702 282 683 q 318 747 318 721 z "},"":{"ha":913,"x_min":0,"x_max":914,"o":"m 910 394 l 910 392 q 847 349 910 386 q 783 272 783 313 q 810 188 783 258 q 847 93 829 140 q 824 27 846 54 q 763 0 801 0 q 719 12 740 0 q 661 206 699 24 q 574 276 646 276 q 493 261 542 276 q 414 239 425 242 q 283 218 349 229 q 183 144 211 200 q 139 60 150 76 q 68 7 104 7 q 50 32 50 7 q 101 123 50 61 q 151 207 151 185 q 113 253 151 231 q 39 292 40 292 q 0 363 0 321 q 29 419 0 392 q 88 447 58 447 q 159 396 118 447 q 226 344 200 344 q 319 436 267 344 q 433 636 358 503 q 478 735 447 669 q 535 824 497 764 q 597 931 565 876 q 692 996 643 996 q 731 979 714 996 q 747 940 747 963 q 742 858 747 913 q 736 778 736 804 q 744 713 736 756 q 751 649 751 669 q 747 494 751 649 q 779 425 746 444 q 849 409 800 414 q 910 394 897 404 m 613 399 q 601 544 613 433 q 578 683 588 669 q 571 686 575 686 q 519 632 554 686 q 476 558 497 594 q 425 478 460 531 q 382 421 403 449 q 356 356 356 385 q 446 311 356 311 q 613 399 613 311 m 467 1038 q 438 1050 444 1038 q 436 1056 436 1053 q 447 1082 436 1072 q 535 1164 478 1108 q 578 1233 549 1181 q 625 1300 606 1281 q 697 1336 644 1336 q 744 1297 719 1336 q 783 1235 764 1265 l 843 1158 q 914 1049 914 1064 q 914 1043 914 1046 q 885 1031 906 1031 q 789 1067 829 1031 q 657 1193 743 1106 q 547 1090 635 1168 q 467 1038 488 1038 z "},"":{"ha":694,"x_min":19,"x_max":886,"o":"m 807 844 q 786 776 807 806 q 725 743 763 743 q 672 797 689 743 q 646 897 660 847 q 571 951 624 951 q 479 919 525 951 q 394 824 440 892 q 346 707 346 750 q 406 614 346 658 q 468 542 467 569 q 425 517 460 517 q 351 524 400 517 q 278 531 301 531 q 211 486 231 531 l 168 392 q 154 326 154 358 q 198 193 154 265 q 297 101 242 121 l 419 60 q 506 47 453 47 q 624 62 546 47 q 742 76 703 76 q 763 72 756 76 q 736 53 765 63 q 617 14 696 38 q 467 -1 550 -1 q 256 19 319 -1 q 19 274 19 97 q 40 396 19 319 q 91 505 63 483 q 150 549 119 526 q 200 607 194 586 q 232 740 231 736 q 295 849 249 792 q 368 918 342 906 l 494 982 q 642 1014 558 1014 q 760 965 713 1014 q 807 844 807 915 m 439 1114 q 410 1126 417 1114 q 408 1132 408 1129 q 419 1158 408 1149 q 507 1240 450 1185 q 550 1310 521 1257 q 597 1376 578 1357 q 669 1413 617 1413 q 717 1374 692 1413 q 756 1311 736 1342 l 815 1235 q 886 1125 886 1140 q 886 1119 886 1122 q 857 1107 878 1107 q 761 1143 801 1107 q 629 1269 715 1182 q 519 1167 607 1244 q 439 1114 460 1114 z "},"":{"ha":913,"x_min":0,"x_max":967,"o":"m 910 394 l 910 392 q 847 349 910 386 q 783 272 783 313 q 810 188 783 258 q 847 93 829 140 q 824 27 846 54 q 763 0 801 0 q 719 12 740 0 q 661 206 699 24 q 574 276 646 276 q 493 261 542 276 q 414 239 425 242 q 283 218 349 229 q 183 144 211 200 q 139 60 150 76 q 68 7 104 7 q 50 32 50 7 q 101 123 50 61 q 151 207 151 185 q 113 253 151 231 q 39 292 40 292 q 0 363 0 321 q 29 419 0 392 q 88 447 58 447 q 159 396 118 447 q 226 344 200 344 q 319 436 267 344 q 433 636 358 503 q 478 735 447 669 q 535 824 497 764 q 597 931 565 876 q 692 996 643 996 q 731 979 714 996 q 747 940 747 963 q 742 858 747 913 q 736 778 736 804 q 744 713 736 756 q 751 649 751 669 q 747 494 751 649 q 779 425 746 444 q 849 409 800 414 q 910 394 897 404 m 613 399 q 601 544 613 433 q 578 683 588 669 q 571 686 575 686 q 519 632 554 686 q 476 558 497 594 q 425 478 460 531 q 382 421 403 449 q 356 356 356 385 q 446 311 356 311 q 613 399 613 311 m 624 1104 q 588 1117 597 1104 q 586 1122 586 1119 q 599 1149 586 1139 q 713 1231 640 1175 q 797 1335 754 1283 q 914 1396 850 1396 q 967 1356 967 1396 q 875 1231 967 1306 q 749 1140 853 1211 q 624 1104 696 1104 z "},"":{"ha":694,"x_min":19,"x_max":807,"o":"m 807 844 q 786 776 807 806 q 725 743 763 743 q 672 797 689 743 q 646 897 660 847 q 571 951 624 951 q 479 919 525 951 q 394 824 440 892 q 346 707 346 750 q 406 614 346 658 q 468 542 467 569 q 425 517 460 517 q 351 524 400 517 q 278 531 301 531 q 211 486 231 531 l 168 392 q 154 326 154 358 q 198 193 154 265 q 297 101 242 121 l 419 60 q 506 47 453 47 q 624 62 546 47 q 742 76 703 76 q 763 72 756 76 q 736 53 765 63 q 617 14 696 38 q 467 -1 550 -1 q 256 19 319 -1 q 19 274 19 97 q 40 396 19 319 q 91 505 63 483 q 150 549 119 526 q 200 607 194 586 q 232 740 231 736 q 295 849 249 792 q 368 918 342 906 l 494 982 q 642 1014 558 1014 q 760 965 713 1014 q 807 844 807 915 m 804 1235 q 782 1147 804 1185 q 707 1104 754 1104 q 678 1126 696 1104 q 668 1147 675 1129 q 660 1165 661 1165 q 617 1119 642 1165 q 536 1228 536 1146 q 553 1304 536 1265 q 606 1353 574 1353 q 650 1315 625 1353 q 681 1276 675 1276 q 742 1318 683 1276 q 754 1319 749 1319 q 804 1235 804 1319 z "},"":{"ha":694,"x_min":19,"x_max":807,"o":"m 807 844 q 786 776 807 806 q 725 743 763 743 q 672 797 689 743 q 646 897 660 847 q 571 951 624 951 q 479 919 525 951 q 394 824 440 892 q 346 707 346 750 q 406 614 346 658 q 468 542 467 569 q 425 517 460 517 q 351 524 400 517 q 278 531 301 531 q 211 486 231 531 l 168 392 q 154 326 154 358 q 198 193 154 265 q 297 101 242 121 l 419 60 q 506 47 453 47 q 624 62 546 47 q 742 76 703 76 q 763 72 756 76 q 736 53 765 63 q 617 14 696 38 q 467 -1 550 -1 q 256 19 319 -1 q 19 274 19 97 q 40 396 19 319 q 91 505 63 483 q 150 549 119 526 q 200 607 194 586 q 232 740 231 736 q 295 849 249 792 q 368 918 342 906 l 494 982 q 642 1014 558 1014 q 760 965 713 1014 q 807 844 807 915 m 671 1118 q 708 1131 697 1118 q 708 1136 708 1133 q 617 1246 708 1151 q 540 1322 590 1271 q 490 1385 515 1353 q 428 1424 456 1424 q 367 1410 399 1424 q 328 1369 328 1394 q 419 1244 328 1319 q 546 1154 443 1225 q 671 1118 599 1118 z "},"":{"ha":489,"x_min":17,"x_max":590,"o":"m 429 467 q 424 325 429 413 q 399 224 422 303 q 368 126 376 144 q 324 46 339 65 q 246 4 290 4 q 185 26 200 4 q 106 136 158 64 q 53 189 79 163 q 17 249 17 226 q 18 257 17 249 q 50 269 28 269 q 148 197 88 269 q 240 124 208 124 q 321 315 321 124 q 319 358 321 333 q 319 390 319 385 q 319 511 319 511 q 297 635 311 553 q 271 796 290 689 q 243 881 268 808 q 225 968 225 936 q 289 1025 225 1025 q 372 958 356 1025 q 388 821 382 917 q 401 678 394 717 q 429 467 429 517 m 247 1124 q 211 1136 221 1124 q 210 1142 210 1139 q 222 1168 210 1158 q 336 1250 264 1194 q 421 1354 378 1303 q 538 1415 474 1415 q 590 1375 590 1415 q 499 1250 590 1325 q 372 1160 476 1231 q 247 1124 319 1124 z "},"":{"ha":489,"x_min":17,"x_max":508,"o":"m 429 467 q 424 325 429 413 q 399 224 422 303 q 368 126 376 144 q 324 46 339 65 q 246 4 290 4 q 185 26 200 4 q 106 136 158 64 q 53 189 79 163 q 17 249 17 226 q 18 257 17 249 q 50 269 28 269 q 148 197 88 269 q 240 124 208 124 q 321 315 321 124 q 319 358 321 333 q 319 390 319 385 q 319 511 319 511 q 297 635 311 553 q 271 796 290 689 q 243 881 268 808 q 225 968 225 936 q 289 1025 225 1025 q 372 958 356 1025 q 388 821 382 917 q 401 678 394 717 q 429 467 429 517 m 61 1067 q 32 1079 39 1067 q 31 1085 31 1082 q 42 1111 31 1101 q 129 1193 72 1138 q 172 1263 143 1210 q 219 1329 200 1310 q 292 1365 239 1365 q 339 1326 314 1365 q 378 1264 358 1294 l 438 1188 q 508 1078 508 1093 q 508 1072 508 1075 q 479 1060 500 1060 q 383 1096 424 1060 q 251 1222 338 1135 q 142 1119 229 1197 q 61 1067 82 1067 z "},"":{"ha":489,"x_min":17,"x_max":453,"o":"m 429 467 q 424 325 429 413 q 399 224 422 303 q 368 126 376 144 q 324 46 339 65 q 246 4 290 4 q 185 26 200 4 q 106 136 158 64 q 53 189 79 163 q 17 249 17 226 q 18 257 17 249 q 50 269 28 269 q 148 197 88 269 q 240 124 208 124 q 321 315 321 124 q 319 358 321 333 q 319 390 319 385 q 319 511 319 511 q 297 635 311 553 q 271 796 290 689 q 243 881 268 808 q 225 968 225 936 q 289 1025 225 1025 q 372 958 356 1025 q 388 821 382 917 q 401 678 394 717 q 429 467 429 517 m 453 1260 q 431 1172 453 1210 q 356 1129 404 1129 q 326 1151 346 1129 q 317 1172 324 1154 q 308 1190 311 1190 q 265 1144 292 1190 q 185 1253 185 1171 q 203 1329 185 1290 q 254 1378 224 1378 q 299 1340 274 1378 q 331 1301 325 1301 q 390 1343 332 1301 q 404 1346 397 1346 q 453 1260 453 1346 z "},"":{"ha":489,"x_min":15,"x_max":429,"o":"m 429 467 q 424 325 429 413 q 399 224 422 303 q 368 126 376 144 q 324 46 339 65 q 246 4 290 4 q 185 26 200 4 q 106 136 158 64 q 53 189 79 163 q 17 249 17 226 q 18 257 17 249 q 50 269 28 269 q 148 197 88 269 q 240 124 208 124 q 321 315 321 124 q 319 358 321 333 q 319 390 319 385 q 319 511 319 511 q 297 635 311 553 q 271 796 290 689 q 243 881 268 808 q 225 968 225 936 q 289 1025 225 1025 q 372 958 356 1025 q 388 821 382 917 q 401 678 394 717 q 429 467 429 517 m 358 1142 q 396 1154 385 1142 q 396 1160 396 1157 q 304 1269 396 1175 q 228 1346 278 1294 q 178 1408 203 1376 q 115 1447 143 1447 q 54 1433 86 1447 q 15 1393 15 1418 q 107 1268 15 1343 q 233 1178 131 1249 q 358 1142 286 1142 z "},"":{"ha":928,"x_min":-3,"x_max":911,"o":"m 911 464 q 890 342 911 399 q 643 99 840 206 q 301 -1 460 -1 q 68 81 142 -1 q -3 319 -3 158 q 32 564 -3 417 q 113 767 64 697 q 292 878 176 856 q 331 882 311 882 q 392 877 354 882 q 454 872 429 872 l 483 872 q 549 872 549 872 q 324 828 449 856 q 176 624 190 707 q 151 378 151 476 q 215 157 151 229 q 428 81 282 81 q 599 118 506 81 q 742 215 697 158 q 810 306 776 261 q 851 460 851 363 q 735 771 851 625 q 653 822 728 779 q 578 869 578 865 q 590 874 582 874 q 654 864 629 874 q 703 838 664 860 q 750 810 742 817 q 911 464 911 663 m 493 997 q 457 1010 467 997 q 456 1015 456 1013 q 468 1042 456 1032 q 582 1124 510 1068 q 667 1228 624 1176 q 783 1289 719 1289 q 836 1249 836 1289 q 744 1124 836 1199 q 618 1033 722 1104 q 493 997 565 997 z "},"":{"ha":928,"x_min":-3,"x_max":911,"o":"m 911 464 q 890 342 911 399 q 643 99 840 206 q 301 -1 460 -1 q 68 81 142 -1 q -3 319 -3 158 q 32 564 -3 417 q 113 767 64 697 q 292 878 176 856 q 331 882 311 882 q 392 877 354 882 q 454 872 429 872 l 483 872 q 549 872 549 872 q 324 828 449 856 q 176 624 190 707 q 151 378 151 476 q 215 157 151 229 q 428 81 282 81 q 599 118 506 81 q 742 215 697 158 q 810 306 776 261 q 851 460 851 363 q 735 771 851 625 q 653 822 728 779 q 578 869 578 865 q 590 874 582 874 q 654 864 629 874 q 703 838 664 860 q 750 810 742 817 q 911 464 911 663 m 317 996 q 288 1008 294 996 q 286 1014 286 1011 q 297 1040 286 1031 q 385 1122 328 1067 q 428 1192 399 1139 q 475 1258 456 1239 q 547 1294 494 1294 q 594 1256 569 1294 q 633 1193 614 1224 l 693 1117 q 764 1007 764 1022 q 764 1001 764 1004 q 735 989 756 989 q 639 1025 679 989 q 507 1151 593 1064 q 397 1049 485 1126 q 317 996 338 996 z "},"":{"ha":928,"x_min":-3,"x_max":911,"o":"m 911 464 q 890 342 911 399 q 643 99 840 206 q 301 -1 460 -1 q 68 81 142 -1 q -3 319 -3 158 q 32 564 -3 417 q 113 767 64 697 q 292 878 176 856 q 331 882 311 882 q 392 877 354 882 q 454 872 429 872 l 483 872 q 549 872 549 872 q 324 828 449 856 q 176 624 190 707 q 151 378 151 476 q 215 157 151 229 q 428 81 282 81 q 599 118 506 81 q 742 215 697 158 q 810 306 776 261 q 851 460 851 363 q 735 771 851 625 q 653 822 728 779 q 578 869 578 865 q 590 874 582 874 q 654 864 629 874 q 703 838 664 860 q 750 810 742 817 q 911 464 911 663 m 586 1068 q 624 1081 613 1068 q 624 1086 624 1083 q 532 1196 624 1101 q 456 1272 506 1221 q 406 1335 431 1303 q 343 1374 371 1374 q 282 1360 314 1374 q 243 1319 243 1344 q 335 1194 243 1269 q 461 1104 358 1175 q 586 1068 514 1068 z "},"":{"ha":964,"x_min":4,"x_max":1135,"o":"m 1135 56 q 1083 10 1135 26 q 1008 -1 1046 -1 q 839 40 943 -1 q 697 133 724 85 q 657 211 676 172 q 601 274 619 274 q 567 256 578 274 l 501 147 q 378 26 461 79 q 217 -31 292 -31 q 4 289 4 -31 q 36 613 4 446 q 90 817 54 707 q 214 1006 154 1006 q 229 979 229 1006 q 192 852 229 954 q 129 606 154 750 q 108 428 108 482 q 139 206 108 294 q 290 69 185 69 q 490 213 411 69 q 550 321 546 313 q 586 433 574 371 q 619 601 597 489 q 639 733 629 668 q 689 857 654 811 q 728 885 710 885 q 756 826 756 885 q 737 699 756 783 q 718 569 718 614 q 740 421 718 500 q 804 288 764 331 l 881 204 q 1028 132 903 179 q 1135 56 1135 90 m 438 1054 q 401 1067 411 1054 q 400 1072 400 1069 q 413 1099 400 1089 q 526 1181 454 1125 q 611 1285 568 1233 q 728 1346 664 1346 q 781 1306 781 1346 q 689 1181 781 1256 q 563 1090 667 1161 q 438 1054 510 1054 z "},"":{"ha":964,"x_min":4,"x_max":1135,"o":"m 1135 56 q 1083 10 1135 26 q 1008 -1 1046 -1 q 839 40 943 -1 q 697 133 724 85 q 657 211 676 172 q 601 274 619 274 q 567 256 578 274 l 501 147 q 378 26 461 79 q 217 -31 292 -31 q 4 289 4 -31 q 36 613 4 446 q 90 817 54 707 q 214 1006 154 1006 q 229 979 229 1006 q 192 852 229 954 q 129 606 154 750 q 108 428 108 482 q 139 206 108 294 q 290 69 185 69 q 490 213 411 69 q 550 321 546 313 q 586 433 574 371 q 619 601 597 489 q 639 733 629 668 q 689 857 654 811 q 728 885 710 885 q 756 826 756 885 q 737 699 756 783 q 718 569 718 614 q 740 421 718 500 q 804 288 764 331 l 881 204 q 1028 132 903 179 q 1135 56 1135 90 m 278 1061 q 249 1074 256 1061 q 247 1079 247 1076 q 258 1106 247 1096 q 346 1188 289 1132 q 389 1257 360 1204 q 436 1324 417 1304 q 508 1360 456 1360 q 556 1321 531 1360 q 594 1258 575 1289 l 654 1182 q 725 1072 725 1088 q 725 1067 725 1069 q 696 1054 717 1054 q 600 1090 640 1054 q 468 1217 554 1129 q 358 1114 446 1192 q 278 1061 299 1061 z "},"":{"ha":964,"x_min":4,"x_max":1135,"o":"m 1135 56 q 1083 10 1135 26 q 1008 -1 1046 -1 q 839 40 943 -1 q 697 133 724 85 q 657 211 676 172 q 601 274 619 274 q 567 256 578 274 l 501 147 q 378 26 461 79 q 217 -31 292 -31 q 4 289 4 -31 q 36 613 4 446 q 90 817 54 707 q 214 1006 154 1006 q 229 979 229 1006 q 192 852 229 954 q 129 606 154 750 q 108 428 108 482 q 139 206 108 294 q 290 69 185 69 q 490 213 411 69 q 550 321 546 313 q 586 433 574 371 q 619 601 597 489 q 639 733 629 668 q 689 857 654 811 q 728 885 710 885 q 756 826 756 885 q 737 699 756 783 q 718 569 718 614 q 740 421 718 500 q 804 288 764 331 l 881 204 q 1028 132 903 179 q 1135 56 1135 90 m 564 1024 q 601 1036 590 1024 q 601 1042 601 1039 q 510 1151 601 1057 q 433 1228 483 1176 q 383 1290 408 1258 q 321 1329 349 1329 q 260 1315 292 1329 q 221 1275 221 1300 q 313 1150 221 1225 q 439 1060 336 1131 q 564 1024 492 1024 z "},"":{"ha":558,"x_min":-107,"x_max":642,"o":"m 635 125 q 633 119 635 125 q 507 53 603 83 q 363 24 419 24 q 251 47 275 24 q 192 104 221 76 q 126 154 140 154 q 88 128 111 154 q 33 78 57 93 q -75 51 -11 51 q -107 63 -106 51 q -72 86 -106 69 q -31 108 -32 108 q 54 208 -3 129 q 128 317 90 263 q 196 439 161 378 q 293 524 247 524 q 322 482 324 524 l 322 472 q 311 364 321 453 l 307 326 q 305 310 306 317 q 304 296 304 304 q 362 174 304 232 q 485 115 419 115 q 548 126 507 115 q 606 138 589 138 q 633 131 619 138 l 642 139 l 635 125 z "},"":{"ha":672,"x_min":81,"x_max":558,"o":"m 111 933 q 82 946 89 933 q 81 951 81 949 q 92 978 81 968 q 179 1060 122 1004 q 222 1129 193 1076 q 269 1196 250 1176 q 342 1232 289 1232 q 389 1193 364 1232 q 428 1131 408 1161 l 488 1054 q 558 944 558 960 q 558 939 558 942 q 529 926 550 926 q 433 963 474 926 q 301 1089 388 1001 q 192 986 279 1064 q 111 933 132 933 z "},"":{"ha":800,"x_min":88,"x_max":651,"o":"m 606 960 q 554 857 565 874 q 469 808 514 799 q 358 904 418 817 q 274 992 299 992 q 205 925 251 992 q 113 856 158 858 q 88 865 88 853 q 131 929 88 882 q 196 1001 164 965 q 250 1076 222 1039 q 315 1113 278 1113 q 369 1094 347 1113 q 393 1067 371 1093 q 451 975 403 1054 q 506 932 479 929 q 561 1029 533 935 q 622 1126 589 1124 q 651 1086 651 1129 q 606 960 651 1053 z "},"":{"ha":1081,"x_min":193,"x_max":888,"o":"m 888 0 l 193 0 l 193 868 l 888 868 l 888 0 m 865 22 l 865 847 l 214 847 l 214 22 l 865 22 z "},"":{"ha":1081,"x_min":193,"x_max":888,"o":"m 888 0 l 193 0 l 193 868 l 888 868 l 888 0 m 865 22 l 865 847 l 214 847 l 214 22 l 865 22 z "},"":{"ha":1081,"x_min":193,"x_max":888,"o":"m 888 0 l 193 0 l 193 868 l 888 868 l 888 0 m 865 22 l 865 847 l 214 847 l 214 22 l 865 22 z "},"":{"ha":1081,"x_min":193,"x_max":888,"o":"m 888 0 l 193 0 l 193 868 l 888 868 l 888 0 m 865 22 l 865 847 l 214 847 l 214 22 l 865 22 z "},"":{"ha":1081,"x_min":193,"x_max":888,"o":"m 888 0 l 193 0 l 193 868 l 888 868 l 888 0 m 865 22 l 865 847 l 214 847 l 214 22 l 865 22 z "},"":{"ha":1218,"x_min":0,"x_max":1207,"o":"m 1207 547 q 1171 410 1207 499 q 1101 282 1135 322 l 1043 213 q 964 125 1011 174 q 650 0 774 0 q 454 56 551 0 q 307 146 336 124 q 203 279 229 204 q 199 301 199 292 q 221 326 199 326 q 319 254 263 326 q 410 157 388 169 q 696 53 597 53 q 793 82 749 53 q 872 147 803 88 q 1007 308 950 214 q 1072 506 1072 417 q 1010 710 1072 636 q 903 819 940 792 q 769 892 875 840 q 650 924 710 921 q 449 928 554 928 q 201 869 374 928 q 126 785 157 854 q 61 722 100 722 q 19 739 38 722 q 0 779 0 756 q 46 842 0 817 q 125 871 47 842 q 242 917 164 888 q 586 982 443 982 q 863 946 764 982 q 1096 792 967 908 q 1174 679 1140 751 q 1207 547 1207 607 m 842 453 q 801 390 842 419 q 724 361 760 361 q 665 365 711 361 q 565 136 646 136 q 513 240 513 136 q 529 374 513 271 l 389 382 q 368 399 368 383 q 374 425 368 406 q 443 507 390 492 q 557 515 463 514 q 596 664 581 628 q 700 769 629 740 q 728 776 717 776 q 754 746 754 776 q 683 511 754 704 q 842 453 842 506 z "},"":{"ha":575,"x_min":22,"x_max":525,"o":"m 388 176 q 425 214 413 197 q 444 279 444 240 q 371 456 444 365 q 306 489 344 489 q 192 436 258 489 q 139 351 139 393 q 189 253 139 314 q 324 151 271 151 q 388 176 356 151 m 458 964 q 376 894 458 922 l 364 890 l 329 879 q 411 743 375 806 q 463 619 438 694 q 501 490 482 554 q 522 367 525 415 q 493 249 519 318 q 444 135 468 192 q 424 89 429 99 q 390 51 411 68 q 288 10 340 10 q 161 81 219 10 q 89 224 93 164 q 110 411 83 318 q 203 526 122 451 q 264 639 272 590 q 221 728 258 667 q 161 825 165 817 l 92 803 q 22 822 22 782 q 122 918 22 871 q 90 1039 90 994 q 126 1121 90 1092 q 146 1128 135 1128 q 194 1100 172 1128 q 221 1061 213 1078 q 243 1019 235 1035 l 276 965 q 411 990 368 990 q 458 964 458 990 z "},"":{"ha":793,"x_min":22,"x_max":849,"o":"m 507 -282 q 408 -231 476 -282 l 332 -172 q 206 -29 319 -162 q 168 97 168 15 q 176 124 168 124 q 189 114 185 124 q 263 -28 243 -6 q 396 -139 282 -51 q 506 -194 468 -194 q 538 -181 521 -194 q 557 -153 556 -168 l 575 57 q 594 250 582 121 q 594 343 594 281 q 611 526 596 389 q 605 558 613 542 q 582 575 597 575 q 483 510 567 575 q 379 465 453 486 q 267 446 311 446 q 171 529 171 446 q 192 665 171 550 q 214 782 210 764 q 236 851 215 790 q 250 921 250 894 q 215 961 250 961 q 203 960 210 961 q 122 904 163 932 q 32 864 57 863 l 28 864 q 22 874 22 867 q 35 892 22 878 q 121 951 69 931 q 222 993 172 972 q 281 1031 224 994 q 339 1056 319 1056 q 369 1019 369 1056 q 350 940 369 994 q 324 864 326 876 q 308 751 319 826 q 292 675 308 749 q 282 596 282 628 q 369 506 282 506 q 460 535 410 506 q 539 590 463 538 q 579 621 540 592 q 667 785 628 658 q 763 931 703 901 q 792 939 779 939 q 801 938 792 939 q 814 911 814 931 q 788 811 814 888 q 754 701 758 726 q 728 550 744 651 q 721 428 725 508 q 706 211 717 356 q 683 -3 706 207 q 638 -178 674 -101 q 507 -282 588 -282 m 506 1086 q 469 1099 479 1086 q 468 1104 468 1101 q 481 1131 468 1121 q 594 1213 522 1157 q 679 1317 636 1265 q 796 1378 732 1378 q 849 1338 849 1378 q 757 1213 849 1288 q 631 1122 735 1193 q 506 1086 578 1086 z "},"":{"ha":629,"x_min":-112,"x_max":699,"o":"m 356 917 q 319 929 329 917 q 318 935 318 932 q 331 961 318 951 q 444 1043 372 988 q 529 1147 486 1096 q 646 1208 582 1208 q 699 1168 699 1208 q 607 1043 699 1118 q 481 953 585 1024 q 356 917 428 917 m 257 -646 q 149 -608 208 -646 q 60 -531 96 -575 q 32 -446 32 -496 q 43 -385 32 -419 q 72 -336 56 -344 q 104 -399 79 -336 q 140 -481 132 -469 q 300 -567 207 -567 q 408 -497 374 -567 q 444 -364 426 -461 q 457 -232 457 -294 q 436 -42 457 -196 q 422 50 426 33 q 376 118 406 118 q 307 74 363 118 q 225 29 251 29 q 132 131 132 29 q 150 242 132 175 q 190 351 168 310 q 235 463 235 436 q 168 525 235 525 q 75 510 128 525 q -10 471 18 493 q -108 394 -51 433 q -112 403 -112 397 q -108 419 -112 408 q -17 518 -85 479 q 110 576 -15 519 q 244 610 183 610 q 338 546 338 610 q 303 450 338 517 q 258 346 264 376 q 246 240 246 283 q 301 139 246 139 q 335 149 315 139 q 363 171 356 160 l 449 313 q 485 326 467 326 q 531 265 519 326 q 540 179 535 222 q 567 67 554 124 q 581 -46 581 3 q 571 -214 581 -142 q 542 -358 569 -225 q 433 -544 529 -419 q 257 -646 356 -646 z "},"":{"ha":917,"x_min":-93,"x_max":901,"o":"m 596 692 q 474 328 474 353 q 497 268 474 290 q 557 246 519 246 q 715 305 647 246 q 783 449 783 364 q 732 581 783 522 q 596 692 667 656 m 901 482 q 761 276 901 361 q 767 281 767 279 l 767 281 q 719 261 764 281 q 651 232 669 239 q 519 211 586 222 q 408 140 429 193 q 367 33 388 86 q 290 0 349 0 q 265 43 265 0 q 304 225 265 147 q 374 396 358 335 q 481 724 407 529 l 394 743 q 338 750 364 750 q 181 711 306 750 q 29 649 47 671 q -14 592 8 619 q -69 551 -47 551 q -93 582 -93 551 q 56 700 -93 639 q 188 754 100 721 q 358 785 260 774 q 490 786 372 786 q 504 783 493 785 q 654 1026 603 1026 q 699 975 692 1026 q 619 757 676 914 l 643 753 q 760 693 694 740 q 863 607 843 632 q 901 482 901 558 z "},"":{"ha":628,"x_min":-79,"x_max":593,"o":"m 593 338 q 558 181 593 229 q 425 49 504 103 q 281 17 390 24 q 163 -33 186 11 q 140 -135 149 -57 q 123 -251 128 -233 q 107 -307 118 -269 q 63 -450 65 -444 q -39 -549 21 -549 q -79 -490 -79 -549 q -72 -415 -79 -460 q -61 -342 -61 -344 q -17 -21 -36 -136 q 69 417 0 81 q 168 851 147 797 q 206 921 183 890 q 263 957 238 963 q 310 826 310 946 q 296 647 310 765 q 282 497 282 528 q 294 460 282 460 q 347 482 294 460 q 433 504 400 504 q 593 338 593 504 m 357 404 q 306 399 325 404 q 218 308 249 385 q 194 176 194 247 q 347 79 194 79 q 443 115 418 79 q 464 221 464 146 q 450 343 464 307 q 357 404 428 404 z "},"":{"ha":596,"x_min":81,"x_max":556,"o":"m 556 475 q 513 411 556 440 q 438 383 471 382 l 424 383 l 101 404 q 82 415 85 406 q 86 446 81 422 q 192 535 108 535 q 333 535 333 535 q 461 528 397 532 q 556 475 556 518 z "},"":{"ha":1081,"x_min":193,"x_max":888,"o":"m 888 0 l 193 0 l 193 868 l 888 868 l 888 0 m 865 22 l 865 847 l 214 847 l 214 22 l 865 22 z "},"":{"ha":1081,"x_min":193,"x_max":888,"o":"m 888 0 l 193 0 l 193 868 l 888 868 l 888 0 m 865 22 l 865 847 l 214 847 l 214 22 l 865 22 z "},"":{"ha":1081,"x_min":193,"x_max":888,"o":"m 888 0 l 193 0 l 193 868 l 888 868 l 888 0 m 865 22 l 865 847 l 214 847 l 214 22 l 865 22 z "},"":{"ha":1081,"x_min":193,"x_max":888,"o":"m 888 0 l 193 0 l 193 868 l 888 868 l 888 0 m 865 22 l 865 847 l 214 847 l 214 22 l 865 22 z "},"":{"ha":1081,"x_min":193,"x_max":888,"o":"m 888 0 l 193 0 l 193 868 l 888 868 l 888 0 m 865 22 l 865 847 l 214 847 l 214 22 l 865 22 z "},"":{"ha":1081,"x_min":193,"x_max":888,"o":"m 888 0 l 193 0 l 193 868 l 888 868 l 888 0 m 865 22 l 865 847 l 214 847 l 214 22 l 865 22 z "},"":{"ha":1081,"x_min":193,"x_max":888,"o":"m 888 0 l 193 0 l 193 868 l 888 868 l 888 0 m 865 22 l 865 847 l 214 847 l 214 22 l 865 22 z "},"":{"ha":347,"x_min":0,"x_max":0,"o":""},"":{"ha":728,"x_min":-57,"x_max":861,"o":"m 135 -24 q 104 -269 118 -153 q 61 -404 74 -374 q -17 -501 24 -493 q -47 -482 -35 -504 q -57 -443 -57 -464 q -32 -160 -57 -354 q 7 121 -18 -60 q 31 375 8 293 q 68 511 63 496 q 156 626 110 626 q 169 604 169 626 q 145 506 169 583 q 121 381 121 428 q 139 222 121 361 q 186 151 144 176 q 269 128 222 128 q 414 203 354 128 q 479 360 464 267 q 567 528 506 528 q 593 496 585 528 q 574 319 574 349 q 594 213 574 293 q 633 153 614 182 q 689 115 663 115 q 814 126 689 115 q 861 85 861 110 q 851 72 861 81 q 839 63 840 64 q 651 1 790 1 q 536 32 582 1 q 478 88 515 44 q 429 118 451 118 q 371 81 408 118 q 293 10 317 26 q 176 -28 239 -28 q 135 -24 153 -28 z "},"":{"ha":439,"x_min":201,"x_max":381,"o":"m 381 678 q 352 602 381 633 q 279 571 324 571 q 226 590 250 571 q 201 639 201 608 q 229 718 201 685 q 301 751 257 751 q 358 731 335 751 q 381 678 381 710 z "},"":{"ha":1081,"x_min":193,"x_max":888,"o":"m 888 0 l 193 0 l 193 868 l 888 868 l 888 0 m 865 22 l 865 847 l 214 847 l 214 22 l 865 22 z "},"":{"ha":1081,"x_min":193,"x_max":888,"o":"m 888 0 l 193 0 l 193 868 l 888 868 l 888 0 m 865 22 l 865 847 l 214 847 l 214 22 l 865 22 z "},"":{"ha":1081,"x_min":193,"x_max":888,"o":"m 888 0 l 193 0 l 193 868 l 888 868 l 888 0 m 865 22 l 865 847 l 214 847 l 214 22 l 865 22 z "},"":{"ha":1081,"x_min":193,"x_max":888,"o":"m 888 0 l 193 0 l 193 868 l 888 868 l 888 0 m 865 22 l 865 847 l 214 847 l 214 22 l 865 22 z "},"":{"ha":1081,"x_min":193,"x_max":888,"o":"m 888 0 l 193 0 l 193 868 l 888 868 l 888 0 m 865 22 l 865 847 l 214 847 l 214 22 l 865 22 z "},"":{"ha":1081,"x_min":193,"x_max":888,"o":"m 888 0 l 193 0 l 193 868 l 888 868 l 888 0 m 865 22 l 865 847 l 214 847 l 214 22 l 865 22 z "},"":{"ha":954,"x_min":-1,"x_max":913,"o":"m 913 614 q 858 554 913 554 q 792 590 829 554 q 718 657 726 651 q 611 693 668 693 q 556 671 603 693 q 367 490 464 626 q 511 475 428 486 q 622 446 622 460 q 569 422 622 433 q 292 390 428 392 q 265 321 272 357 q 301 321 283 321 q 417 311 354 321 q 519 274 501 297 l 519 271 q 403 242 519 250 q 260 236 332 239 q 271 192 260 208 q 361 96 321 117 q 483 78 397 78 q 614 91 528 78 q 744 104 700 104 q 786 85 786 104 q 763 68 786 74 q 446 14 538 14 q 361 26 442 14 q 136 128 233 46 q 118 229 117 172 q 35 226 58 226 q -1 229 4 226 q 54 268 -1 242 q 126 296 99 288 q 186 394 136 332 q 58 435 58 406 q 150 475 58 457 q 265 490 219 489 q 447 660 310 557 q 571 740 525 718 q 711 775 639 775 q 842 729 779 775 q 913 614 913 679 z "}}}
